<svg width="14" height="21" viewBox="0 0 14 21" fill="none" xmlns="http://www.w3.org/2000/svg">
<path d="M0.717108 17.0065H13.2833C14.0603 17.0065 14.2328 16.5666 13.6663 16.0294L10.6968 13.212C10.1302 12.6748 10.3028 12.2348 11.0797 12.2348H11.215C11.992 12.2348 12.2059 11.7549 11.6904 11.1673L7.93782 6.89662C7.68001 6.60297 7.33981 6.4563 6.99997 6.4563C6.66005 6.4563 6.3198 6.60297 6.06209 6.89662L2.31044 11.1673C1.79465 11.7549 2.00856 12.2348 2.78596 12.2348H2.92052C3.69792 12.2348 3.87043 12.6747 3.3039 13.212L0.333727 16.0294C-0.23285 16.5666 -0.0603379 17.0065 0.717108 17.0065Z" fill="#009C2D"/>
<path d="M10.1304 19.5041H8.84063V18.0065H5.11626V19.5041H3.82333C3.43311 19.5041 3.1167 19.8232 3.1167 20.2176C3.1167 20.6122 3.43311 20.9313 3.82333 20.9313H10.1304C10.5209 20.9313 10.8371 20.6122 10.8371 20.2176C10.8371 19.8232 10.521 19.5041 10.1304 19.5041Z" fill="#009C2D"/>
<path d="M6.83712 0.12853C6.92952 -0.044322 7.07722 -0.0426066 7.1656 0.132322L7.80911 1.4062C7.89754 1.58113 8.12861 1.738 8.32187 1.75538L9.49843 1.85953C9.69164 1.87691 9.74752 2.01355 9.62257 2.16329L8.67105 3.29999C8.5461 3.44977 8.46952 3.73087 8.50122 3.92422L8.71647 5.23616C8.74825 5.42951 8.6364 5.50869 8.46738 5.41176L7.31223 4.74771C7.14312 4.65084 6.86707 4.65084 6.698 4.74808L5.53802 5.41488C5.36891 5.51207 5.25196 5.4323 5.27753 5.23792L5.47007 3.78225C5.4956 3.58782 5.40793 3.31141 5.27512 3.16785L4.33343 2.15147C4.20052 2.00782 4.24997 1.87411 4.44309 1.85357L5.65215 1.725C5.84541 1.70451 6.07898 1.54664 6.17152 1.37379L6.83712 0.12853Z" fill="#009C2D"/>
</svg>
