<svg width="30" height="20" viewBox="0 0 30 20" fill="none" xmlns="http://www.w3.org/2000/svg">
<path d="M25.213 10.162H23.2989C21.7142 10.162 20.4266 11.4941 20.4266 13.1179C20.4266 14.7418 21.7142 16.0738 23.2989 16.0738H24.8948C25.4248 16.0738 25.8518 15.622 25.8518 15.0793C25.8518 14.5374 25.4248 14.0849 24.8948 14.0849H23.2989C22.7709 14.0849 22.3419 13.6579 22.3419 13.1173C22.3419 12.5767 22.7709 12.1497 23.2989 12.1497H25.213C26.7977 12.1497 28.0853 13.4562 28.0853 15.0793C28.0853 16.7025 26.7977 18.009 25.213 18.009H17.2289V13.0077C19.4013 12.6634 21.0582 10.7383 21.0582 8.41447C21.0582 7.95186 21.4295 7.58002 21.8808 7.58002H26.2015C26.839 7.58002 27.3559 7.05083 27.3559 6.39726C27.3559 5.74368 26.839 5.2145 26.2015 5.2145H8.84927C7.83912 5.2145 7.02117 4.38609 7.02117 3.35059C7.02117 1.49476 5.55317 0 3.74278 0H1.27646C0.571322 0.00134481 0 0.568855 0 1.29169C0 2.01385 0.571322 2.58136 1.27646 2.58136H2.3745C2.82578 2.58136 3.17343 2.96934 3.17343 3.43195V8.41582C3.17343 10.9683 5.19897 13.0393 7.68366 13.0628V18.0104H5.10582C3.34594 18.0104 1.91468 16.5526 1.91468 14.7492C1.91468 14.2059 1.48636 13.7776 0.957014 13.7776C0.428328 13.7776 0 14.2193 0 14.7613C0 17.6466 2.29054 20 5.10648 20H25.2123C27.8518 20 30 17.7871 30 15.0807C30 12.3749 27.8525 10.162 25.213 10.162ZM9.57211 13.0662H15.3411V18.0117H9.57211V13.0662Z" fill="#E13280"/>
</svg>
