<svg width="134" height="38" viewBox="0 0 134 38" fill="none" xmlns="http://www.w3.org/2000/svg">
<rect width="134" height="38" rx="19" fill="#48D2EC"/>
<mask id="mask0_1277_23892" style="mask-type:alpha" maskUnits="userSpaceOnUse" x="0" y="0" width="68" height="38">
<rect width="68" height="38" rx="19" fill="#48D2EC"/>
</mask>
<g mask="url(#mask0_1277_23892)">
<path d="M5.98118 20.7649C5.98118 20.7649 6.40689 19.4861 7.41072 18.6837C8.41455 17.8813 17.7206 21.3185 17.7206 21.3185C17.7206 21.3185 19.3463 21.8984 20.3081 23.4348C20.9546 24.4684 21.3155 25.9961 20.6305 27.8408C18.9977 32.2345 14.7616 31.7265 13.658 31.476C13.1394 31.3586 11.8763 31.024 11.8763 31.024C11.8763 31.024 8.99092 33.4066 5.51868 31.5793C2.87508 30.1883 3.20268 28.1088 3.20268 28.1088C3.20268 28.1088 1.42276 26.3289 2.19359 23.85C3.12209 20.8648 5.98118 20.7649 5.98118 20.7649Z" fill="#5B9821"/>
<path d="M12.0021 26.0818C14.4109 25.6806 15.1625 24.6523 15.8159 23.6993C16.5359 22.6481 16.3432 21.7669 16.8443 21.7424C17.3453 21.7179 17.7448 22.6218 17.1947 24.2003C16.4168 26.4322 14.8173 26.7598 14.7858 27.3607C14.7613 27.8372 16.4886 27.8705 18.0478 27.1102C20.306 26.0065 20.306 23.4225 20.306 23.4225C20.306 23.4225 19.9048 22.5938 19.127 22.0174C18.3492 21.4411 17.771 21.1397 17.771 21.1397C17.771 21.1397 16.8425 17.6535 12.6292 17.0754C8.41594 16.4972 6.68333 19.4352 6.68333 19.4352C6.68333 19.4352 6.83399 20.3882 7.56102 21.4919C8.1409 22.3731 8.74004 22.345 8.68924 22.8461C8.65595 23.1719 7.61007 23.2718 6.50638 22.7953C5.5008 22.3608 5.25203 21.7669 4.97699 21.7669C4.70194 21.7669 2.42098 23.037 3.37226 25.7297C4.12557 27.8617 6.615 28.2612 7.05998 28.3383C8.36514 28.5642 9.1167 27.7111 8.1882 27.0331C7.2597 26.3551 6.23134 25.9539 6.45733 25.2777C6.70084 24.5454 7.56978 25.3092 8.61391 25.7612C9.64577 26.208 10.8949 26.2675 12.0021 26.0818Z" fill="#8BC02B"/>
<path d="M7.21289 28.8778C7.21289 28.8778 7.79101 28.8445 8.02927 28.7762C8.26753 28.7079 8.58987 28.5047 8.58987 28.5047C8.58987 28.5047 10.8235 30.8417 11.0548 31.0379C11.2808 31.2288 11.5471 28.3172 11.5471 28.3172C11.5471 28.3172 12.0569 28.396 12.5334 28.3207C13.1606 28.2208 13.588 28.0211 13.588 28.0211C13.588 28.0211 13.2832 29.8133 13.1641 30.493C13.0887 30.9293 13.0624 32.1416 13.0624 32.1416L11.4297 33.501L10.1876 32.6671C10.1876 32.6671 10.1841 32.3395 10.0001 32.117C9.42903 31.4268 7.21289 28.8778 7.21289 28.8778ZM12.9083 32.8739L14.1504 31.3778C14.1504 31.3778 14.5918 31.411 14.9159 31.411C15.2383 31.411 15.8006 31.3427 15.8006 31.3427C15.8006 31.3427 14.781 32.7197 14.2362 33.3994C13.6914 34.0792 12.9784 34.9306 12.9784 34.9306L12.2986 32.958L12.9083 32.8739Z" fill="#6D4B41"/>
<path d="M12.0256 31.6827C11.5176 31.7282 10.1897 32.669 10.1897 32.669C10.1897 32.669 10.258 34.2667 10.2072 35.1689C10.1564 36.0711 9.80074 37.5445 10.1283 37.9176C10.4121 38.24 12.7982 38.3013 13.1539 37.9264C13.5112 37.5515 13.1644 36.0028 13.1644 34.999C13.1644 33.9951 13.0628 32.1416 13.0628 32.1416C13.0628 32.1416 12.6038 31.6318 12.0256 31.6827Z" fill="#865B50"/>
<path d="M12.7336 9.99461C12.8359 9.8923 12.5531 8.67448 13.8136 7.73376C15.074 6.79305 15.9338 7.35435 16.0545 7.31314C16.1739 7.27335 16.7352 4.81214 19.0955 4.17268C21.4558 3.53322 23.9171 4.73257 24.4968 6.73336C25.0269 8.56222 24.6162 9.79425 24.6773 9.87382C24.737 9.9534 25.8781 9.91361 26.5374 10.9737C27.1968 12.0338 26.958 12.6946 26.958 12.6946L22.7575 13.9948H16.0361C16.0361 13.9948 10.1147 12.4345 10.055 12.1546C9.9953 11.8746 10.1303 10.9652 11.0952 10.4138C11.9336 9.93493 12.5531 10.1751 12.7336 9.99461Z" fill="white"/>
<path d="M14.3975 14.3344C14.3975 14.3344 12.1551 14.8033 10.6389 13.6296C9.72659 12.9219 10.0591 11.7751 10.0591 11.7751C10.0591 11.7751 10.7128 12.4359 12.0329 12.6149C13.353 12.7954 14.8337 12.7343 14.8337 12.7343C14.8337 12.7343 15.2032 13.3652 16.5944 13.6551C18.338 14.0175 19.2574 13.1251 19.2574 13.1251C19.2574 13.1251 19.7349 13.6963 21.4159 13.7361C23.097 13.7759 24.0391 12.6022 24.1969 12.5752C24.2764 12.5624 24.7397 12.983 25.6577 12.8352C26.5316 12.6945 26.992 12.3151 26.992 12.3151C26.992 12.3151 27.1185 13.2558 26.2389 13.8356C25.5525 14.2875 24.3589 14.3358 24.3589 14.3358C24.3589 14.3358 24.177 15.0335 23.357 15.5408C22.5954 16.014 21.2823 16.1718 20.3104 15.8819C19.0897 15.5181 18.787 14.9625 18.787 14.9625C18.787 14.9625 17.8776 15.4954 16.4566 15.3149C15.1137 15.1472 14.3975 14.3344 14.3975 14.3344Z" fill="#DAE7EA"/>
<path d="M-6.26639 18.9946C-6.16407 18.8923 -6.44686 17.6745 -5.18641 16.7338C-3.92596 15.793 -3.06624 16.3544 -2.94546 16.3131C-2.82609 16.2734 -2.26479 13.8121 0.0955315 13.1727C2.45585 12.5332 4.91706 13.7326 5.49684 15.7334C6.02688 17.5622 5.6162 18.7942 5.67731 18.8738C5.73699 18.9534 6.87807 18.9136 7.53743 19.9737C8.19678 21.0338 7.95805 21.6946 7.95805 21.6946L3.75751 22.9948H-2.96393C-2.96393 22.9948 -8.88533 21.4345 -8.94501 21.1546C-9.0047 20.8746 -8.8697 19.9652 -7.90482 19.4138C-7.06642 18.9349 -6.44686 19.1751 -6.26639 18.9946Z" fill="white"/>
<path d="M-4.60251 23.3344C-4.60251 23.3344 -6.84488 23.8033 -8.36111 22.6296C-9.27341 21.9219 -8.94089 20.7751 -8.94089 20.7751C-8.94089 20.7751 -8.28722 21.4359 -6.96709 21.6149C-5.64696 21.7954 -4.16625 21.7343 -4.16625 21.7343C-4.16625 21.7343 -3.79679 22.3652 -2.40561 22.6551C-0.662013 23.0175 0.257389 22.1251 0.257389 22.1251C0.257389 22.1251 0.734853 22.6963 2.41592 22.7361C4.09699 22.7759 5.03913 21.6022 5.19686 21.5752C5.27644 21.5624 5.73969 21.983 6.65767 21.8352C7.5316 21.6945 7.99201 21.3151 7.99201 21.3151C7.99201 21.3151 8.11848 22.2558 7.23887 22.8356C6.55252 23.2875 5.35886 23.3358 5.35886 23.3358C5.35886 23.3358 5.17697 24.0335 4.35704 24.5408C3.59537 25.014 2.28234 25.1718 1.31037 24.8819C0.0897074 24.5181 -0.21297 23.9625 -0.21297 23.9625C-0.21297 23.9625 -1.12242 24.4954 -2.54345 24.3149C-3.88631 24.1472 -4.60251 23.3344 -4.60251 23.3344Z" fill="#DAE7EA"/>
<path d="M26.6996 9.01213L29.555 7.06178C29.7339 6.93959 29.9796 7.00543 30.0734 7.20073L31.5711 10.3175C31.602 10.3817 31.6514 10.4351 31.7131 10.4707C31.7748 10.5063 31.8458 10.5225 31.9168 10.5171L35.3648 10.2557C35.5808 10.2393 35.7607 10.4192 35.7443 10.6353L35.483 14.0833C35.4776 14.1543 35.4937 14.2253 35.5294 14.2869C35.565 14.3486 35.6183 14.3981 35.6825 14.4289L38.7993 15.9266C38.9946 16.0205 39.0605 16.2662 38.9383 16.4451L36.9879 19.3005C36.9478 19.3593 36.9263 19.4288 36.9263 19.5C36.9263 19.5712 36.9478 19.6408 36.9879 19.6996L38.9383 22.555C39.0605 22.7339 38.9946 22.9796 38.7993 23.0734L35.6825 24.5711C35.6183 24.602 35.565 24.6514 35.5294 24.7131C35.4937 24.7748 35.4776 24.8458 35.483 24.9168L35.7443 28.3648C35.7607 28.5808 35.5808 28.7607 35.3648 28.7443L31.9168 28.483C31.8458 28.4776 31.7748 28.4937 31.7131 28.5294C31.6514 28.565 31.602 28.6183 31.5711 28.6825L30.0734 31.7993C29.9796 31.9946 29.7339 32.0605 29.555 31.9383L26.6996 29.9879C26.6408 29.9478 26.5712 29.9263 26.5 29.9263C26.4288 29.9263 26.3593 29.9478 26.3005 29.9879L23.4451 31.9383C23.2662 32.0605 23.0204 31.9946 22.9266 31.7993L21.4289 28.6825C21.3981 28.6183 21.3486 28.565 21.2869 28.5294C21.2253 28.4937 21.1543 28.4776 21.0833 28.483L17.6353 28.7443C17.4192 28.7607 17.2393 28.5808 17.2557 28.3648L17.5171 24.9168C17.5225 24.8458 17.5063 24.7748 17.4707 24.7131C17.4351 24.6514 17.3817 24.602 17.3175 24.5711L14.2007 23.0734C14.0054 22.9796 13.9395 22.7339 14.0617 22.555L16.0121 19.6996C16.0522 19.6408 16.0737 19.5712 16.0737 19.5C16.0737 19.4288 16.0522 19.3593 16.0121 19.3005L14.0618 16.445C13.9396 16.2661 14.0054 16.0204 14.2007 15.9266L17.3175 14.4289C17.3817 14.398 17.4351 14.3486 17.4707 14.2869C17.5063 14.2252 17.5225 14.1542 17.5171 14.0832L17.2557 10.6352C17.2393 10.4192 17.4192 10.2393 17.6353 10.2557L21.0833 10.517C21.1543 10.5224 21.2253 10.5063 21.2869 10.4706C21.3486 10.435 21.3981 10.3817 21.4289 10.3175L22.9266 7.20068C23.0205 7.00538 23.2662 6.93954 23.4451 7.06173L26.3005 9.01208C26.3593 9.05226 26.4288 9.07376 26.5 9.07377C26.5712 9.07378 26.6408 9.05229 26.6996 9.01213Z" fill="#FFC639"/>
<path d="M26.4993 29.052C31.7747 29.052 36.0513 24.7754 36.0513 19.5C36.0513 14.2246 31.7747 9.948 26.4993 9.948C21.2238 9.948 16.9473 14.2246 16.9473 19.5C16.9473 24.7754 21.2238 29.052 26.4993 29.052Z" fill="#FFE564"/>
<path d="M27.9812 27.7649C27.9812 27.7649 28.4069 26.4861 29.4107 25.6837C30.4145 24.8813 39.7206 28.3185 39.7206 28.3185C39.7206 28.3185 41.3463 28.8984 42.3081 30.4348C42.9546 31.4684 43.3155 32.9961 42.6305 34.8408C40.9977 39.2345 36.7616 38.7265 35.658 38.476C35.1394 38.3586 33.8763 38.024 33.8763 38.024C33.8763 38.024 30.9909 40.4066 27.5187 38.5793C24.8751 37.1883 25.2027 35.1088 25.2027 35.1088C25.2027 35.1088 23.4228 33.3289 24.1936 30.85C25.1221 27.8648 27.9812 27.7649 27.9812 27.7649Z" fill="#5B9821"/>
<path d="M34.0021 33.0818C36.4109 32.6806 37.1625 31.6523 37.8159 30.6993C38.5359 29.6481 38.3432 28.7669 38.8443 28.7424C39.3453 28.7179 39.7448 29.6218 39.1947 31.2003C38.4168 33.4322 36.8173 33.7598 36.7858 34.3607C36.7613 34.8372 38.4886 34.8705 40.0478 34.1102C42.306 33.0065 42.306 30.4225 42.306 30.4225C42.306 30.4225 41.9048 29.5938 41.127 29.0174C40.3492 28.4411 39.771 28.1397 39.771 28.1397C39.771 28.1397 38.8425 24.6535 34.6292 24.0754C30.4159 23.4972 28.6833 26.4352 28.6833 26.4352C28.6833 26.4352 28.834 27.3882 29.561 28.4919C30.1409 29.3731 30.74 29.345 30.6892 29.8461C30.656 30.1719 29.6101 30.2718 28.5064 29.7953C27.5008 29.3608 27.252 28.7669 26.977 28.7669C26.7019 28.7669 24.421 30.037 25.3723 32.7297C26.1256 34.8617 28.615 35.2612 29.06 35.3383C30.3651 35.5642 31.1167 34.7111 30.1882 34.0331C29.2597 33.3551 28.2313 32.9539 28.4573 32.2777C28.7008 31.5454 29.5698 32.3092 30.6139 32.7612C31.6458 33.208 32.8949 33.2675 34.0021 33.0818Z" fill="#8BC02B"/>
<path d="M29.2129 35.8778C29.2129 35.8778 29.791 35.8445 30.0293 35.7762C30.2675 35.7079 30.5899 35.5047 30.5899 35.5047C30.5899 35.5047 32.8235 37.8417 33.0548 38.0379C33.2808 38.2288 33.5471 35.3172 33.5471 35.3172C33.5471 35.3172 34.0569 35.396 34.5334 35.3207C35.1606 35.2208 35.588 35.0211 35.588 35.0211C35.588 35.0211 35.2832 36.8133 35.1641 37.493C35.0887 37.9293 35.0624 39.1416 35.0624 39.1416L33.4297 40.501L32.1876 39.6671C32.1876 39.6671 32.1841 39.3395 32.0001 39.117C31.429 38.4268 29.2129 35.8778 29.2129 35.8778ZM34.9083 39.8739L36.1504 38.3778C36.1504 38.3778 36.5918 38.411 36.9159 38.411C37.2383 38.411 37.8006 38.3427 37.8006 38.3427C37.8006 38.3427 36.781 39.7197 36.2362 40.3994C35.6914 41.0792 34.9784 41.9306 34.9784 41.9306L34.2986 39.958L34.9083 39.8739Z" fill="#6D4B41"/>
</g>
<path d="M50.852 19.1C50.8427 19.1093 50.8427 19.128 50.852 19.156L54.086 24.014H51.398L49.522 21.2C49.4847 21.1627 49.4567 21.1627 49.438 21.2L47.562 24.014H44.86L48.108 19.156C48.1173 19.1373 48.1173 19.114 48.108 19.086L44.832 14.2H47.534L49.438 17.042C49.4567 17.0793 49.4847 17.0793 49.522 17.042L51.426 14.2H54.128L50.852 19.1ZM57.0974 14.2V19.324C57.0974 19.3427 57.1021 19.3567 57.1114 19.366C57.1208 19.366 57.1301 19.3567 57.1394 19.338L60.6114 14.2H62.6414V24.014H60.4014V18.596C60.4014 18.5773 60.3968 18.568 60.3874 18.568C60.3781 18.5587 60.3688 18.5633 60.3594 18.582L56.8454 24.014H54.8574V14.2H57.0974ZM72.819 14.2V16.44H69.711C69.6457 16.44 69.613 16.4727 69.613 16.538V24.014H67.373V16.538C67.373 16.4727 67.3403 16.44 67.275 16.44H64.153V14.2H72.819Z" fill="white"/>
<path d="M83.6486 24H81.2686L78.8606 17.308C78.842 17.2427 78.7953 17.21 78.7206 17.21C78.6553 17.21 78.6133 17.2427 78.5946 17.308L76.1866 24H73.8066L77.3346 14.186H80.1206L83.6486 24ZM87.2739 16.468C87.1992 16.468 87.1619 16.5053 87.1619 16.58V18.442C87.1619 18.526 87.1992 18.568 87.2739 18.568H91.8239V20.794H87.2739C87.1992 20.794 87.1619 20.836 87.1619 20.92V21.648C87.1619 21.7227 87.1992 21.76 87.2739 21.76H92.9019V24H84.9219V14.2H92.9019V16.468H87.2739ZM102.993 14.2V16.44H99.8848C99.8195 16.44 99.7868 16.4727 99.7868 16.538V24.014H97.5468V16.538C97.5468 16.4727 97.5141 16.44 97.4488 16.44H94.3268V14.2H102.993ZM112.226 24.014H109.846L109.482 23.02C109.464 22.9547 109.422 22.922 109.356 22.922H105.128C105.072 22.922 105.03 22.9547 105.002 23.02L104.652 24.014H102.272L105.8 14.2H108.698L112.226 24.014ZM105.912 20.5C105.894 20.5467 105.898 20.5887 105.926 20.626C105.954 20.6633 105.992 20.682 106.038 20.682H108.46C108.582 20.682 108.624 20.6213 108.586 20.5L107.382 17.14C107.354 17.0747 107.308 17.042 107.242 17.042C107.177 17.042 107.135 17.0747 107.116 17.14L105.912 20.5ZM113.25 23.972V21.732H115.658V23.972H113.25ZM113.25 14.228H115.658V21.102H113.25V14.228Z" fill="#FFEB87"/>
</svg>
