<svg width="200" height="38" viewBox="0 0 200 38" fill="none" xmlns="http://www.w3.org/2000/svg">
<rect width="200" height="38" rx="19" fill="#E66060"/>
<mask id="mask0_1237_1512" style="mask-type:alpha" maskUnits="userSpaceOnUse" x="0" y="0" width="68" height="38">
<rect width="68" height="38" rx="19" fill="#48D2EC"/>
</mask>
<g mask="url(#mask0_1237_1512)">
<path d="M36.8857 13.4526C34.084 6.01069 24.9786 9.33767 24.1468 13.0586C23.0086 9.11879 14.1221 6.1858 11.408 13.4526C8.38741 21.5512 23.0962 28.818 24.1468 30C25.1974 29.0369 39.9062 21.4199 36.8857 13.4526ZM24.1468 27.7236C23.2713 26.7606 11.014 21.0697 13.553 14.6784C15.7856 8.94369 23.1837 11.2638 24.1468 14.3719C24.8472 11.4827 32.4205 8.85614 34.7406 14.6784C37.2796 20.9383 25.0223 26.9794 24.1468 27.7236Z" fill="#FFE564"/>
<path d="M31.6761 16.3419C30.0126 11.9643 24.6282 13.9342 24.1466 16.123C23.4462 13.8029 18.1931 12.0518 16.6171 16.3419C14.8223 21.1572 23.5338 25.4473 24.1466 26.1477C24.7595 25.5786 33.4709 21.0697 31.6761 16.3419Z" fill="#FFE564"/>
</g>
<path d="M45 14.2H53.204V23.986H50.95V16.44H47.24V23.986H45V14.2ZM57.1547 16.468C57.0801 16.468 57.0427 16.5053 57.0427 16.58V18.442C57.0427 18.526 57.0801 18.568 57.1547 18.568H61.7047V20.794H57.1547C57.0801 20.794 57.0427 20.836 57.0427 20.92V21.648C57.0427 21.7227 57.0801 21.76 57.1547 21.76H62.7827V24H54.8027V14.2H62.7827V16.468H57.1547ZM68.9817 14.228C69.5697 14.228 70.1203 14.34 70.6337 14.564C71.1563 14.788 71.609 15.0913 71.9917 15.474C72.3837 15.8567 72.6917 16.3093 72.9157 16.832C73.1397 17.3453 73.2517 17.896 73.2517 18.484C73.2517 19.0067 73.149 19.52 72.9437 20.024C72.7383 20.528 72.4537 20.9807 72.0897 21.382C71.679 21.83 71.2077 22.1707 70.6757 22.404C70.1437 22.6373 69.579 22.754 68.9817 22.754H66.4897V24.014H64.2637V14.228H68.9817ZM68.9677 20.514C69.2477 20.514 69.509 20.4627 69.7517 20.36C70.0037 20.2573 70.223 20.1173 70.4097 19.94C70.5963 19.7533 70.741 19.5387 70.8437 19.296C70.9557 19.044 71.0117 18.778 71.0117 18.498C71.0117 18.218 70.9557 17.9567 70.8437 17.714C70.741 17.462 70.5963 17.2427 70.4097 17.056C70.2323 16.8693 70.0177 16.7247 69.7657 16.622C69.523 16.51 69.2617 16.454 68.9817 16.454H66.6437C66.541 16.454 66.4897 16.5053 66.4897 16.608V20.374C66.4897 20.4673 66.541 20.514 66.6437 20.514H68.9677ZM81.8979 19.058C82.1405 19.3287 82.3225 19.632 82.4439 19.968C82.5745 20.304 82.6399 20.654 82.6399 21.018C82.6399 21.4287 82.5605 21.816 82.4019 22.18C82.2525 22.5347 82.0425 22.8473 81.7719 23.118C81.5012 23.3887 81.1839 23.6033 80.8199 23.762C80.4652 23.9113 80.0825 23.986 79.6719 23.986H74.4219V14.214H79.6719C80.0919 14.214 80.4839 14.2933 80.8479 14.452C81.2119 14.6013 81.5292 14.8207 81.7999 15.11C82.0425 15.3807 82.2292 15.6933 82.3599 16.048C82.4999 16.4027 82.5699 16.7807 82.5699 17.182C82.5699 17.9007 82.3459 18.526 81.8979 19.058ZM76.6479 17.854C76.6479 17.938 76.6945 17.98 76.7879 17.98H79.5879C79.7839 17.98 79.9565 17.9053 80.1059 17.756C80.2552 17.5973 80.3299 17.4107 80.3299 17.196C80.3392 16.9813 80.2692 16.804 80.1199 16.664C79.9705 16.5147 79.7932 16.44 79.5879 16.44H76.7879C76.6945 16.44 76.6479 16.482 76.6479 16.566V17.854ZM76.6479 21.634C76.6479 21.718 76.6945 21.76 76.7879 21.76H79.6579C79.8632 21.76 80.0405 21.69 80.1899 21.55C80.3392 21.4007 80.4139 21.2187 80.4139 21.004C80.4045 20.7893 80.3252 20.6073 80.1759 20.458C80.0359 20.2993 79.8679 20.22 79.6719 20.22H76.7879C76.6945 20.22 76.6479 20.262 76.6479 20.346V21.634ZM92.2756 15.656C92.5463 16.1413 92.7049 16.664 92.7516 17.224C92.7983 17.7747 92.8216 18.358 92.8216 18.974V19.926H92.8076C92.7889 20.346 92.7423 20.752 92.6676 21.144C92.6023 21.536 92.4716 21.9093 92.2756 22.264C91.9303 22.8707 91.4356 23.3093 90.7916 23.58C90.2129 23.8507 89.4476 23.986 88.4956 23.986C87.5623 23.986 86.7969 23.8507 86.1996 23.58C85.5649 23.3 85.0749 22.8613 84.7296 22.264C84.4589 21.7787 84.3003 21.256 84.2536 20.696C84.2069 20.136 84.1836 19.5527 84.1836 18.946V17.994H84.1976C84.2163 17.574 84.2583 17.168 84.3236 16.776C84.3889 16.384 84.5243 16.0107 84.7296 15.656C85.0749 15.0587 85.5649 14.62 86.1996 14.34C86.7969 14.0693 87.5623 13.934 88.4956 13.934C89.4476 13.934 90.2129 14.0693 90.7916 14.34C91.4356 14.6107 91.9303 15.0493 92.2756 15.656ZM90.5536 18.974C90.5536 18.526 90.5443 18.106 90.5256 17.714C90.5069 17.3127 90.4323 17 90.3016 16.776C90.2829 16.7387 90.2456 16.692 90.1896 16.636C90.1429 16.5707 90.0543 16.51 89.9236 16.454C89.7929 16.3887 89.6156 16.3327 89.3916 16.286C89.1676 16.2393 88.8689 16.216 88.4956 16.216C88.1316 16.216 87.8329 16.2393 87.5996 16.286C87.3756 16.3327 87.1983 16.3887 87.0676 16.454C86.9463 16.51 86.8576 16.5707 86.8016 16.636C86.7549 16.692 86.7223 16.7387 86.7036 16.776C86.5729 17 86.4983 17.3033 86.4796 17.686C86.4609 18.0687 86.4516 18.4793 86.4516 18.918V18.946C86.4516 19.394 86.4609 19.8187 86.4796 20.22C86.4983 20.612 86.5729 20.92 86.7036 21.144C86.7223 21.172 86.7549 21.2187 86.8016 21.284C86.8576 21.3493 86.9463 21.4147 87.0676 21.48C87.1983 21.536 87.3756 21.5873 87.5996 21.634C87.8329 21.6807 88.1316 21.704 88.4956 21.704C88.8689 21.704 89.1676 21.6807 89.3916 21.634C89.6156 21.5873 89.7929 21.536 89.9236 21.48C90.0543 21.4147 90.1429 21.3493 90.1896 21.284C90.2456 21.2187 90.2829 21.172 90.3016 21.144C90.4323 20.92 90.5069 20.6167 90.5256 20.234C90.5443 19.8513 90.5536 19.436 90.5536 18.988V18.974ZM96.5024 16.468C96.4277 16.468 96.3904 16.5053 96.3904 16.58V18.442C96.3904 18.526 96.4277 18.568 96.5024 18.568H101.052V20.794H96.5024C96.4277 20.794 96.3904 20.836 96.3904 20.92V21.648C96.3904 21.7227 96.4277 21.76 96.5024 21.76H102.13V24H94.1504V14.2H102.13V16.468H96.5024Z" fill="#FFE564"/>
<path d="M112.179 22.614L111.857 22.866C110.905 23.6033 109.813 23.972 108.581 23.972C107.9 23.972 107.247 23.8507 106.621 23.608C106.005 23.3653 105.455 23.0153 104.969 22.558C104.465 22.082 104.078 21.536 103.807 20.92C103.537 20.304 103.401 19.6553 103.401 18.974C103.401 18.2927 103.537 17.6487 103.807 17.042C104.078 16.426 104.465 15.88 104.969 15.404C105.455 14.9373 106.005 14.5827 106.621 14.34C107.247 14.0973 107.9 13.976 108.581 13.976C109.804 13.976 110.891 14.3447 111.843 15.082L112.165 15.32L111.381 17.672L110.751 17.084C110.462 16.8133 110.131 16.608 109.757 16.468C109.393 16.328 109.001 16.258 108.581 16.258C108.161 16.258 107.765 16.3327 107.391 16.482C107.027 16.622 106.701 16.8273 106.411 17.098C105.851 17.63 105.571 18.2553 105.571 18.974C105.571 19.3287 105.641 19.6693 105.781 19.996C105.931 20.3133 106.141 20.598 106.411 20.85C106.701 21.1207 107.027 21.3307 107.391 21.48C107.765 21.62 108.161 21.69 108.581 21.69C109.001 21.69 109.398 21.62 109.771 21.48C110.145 21.3307 110.476 21.1207 110.765 20.85L111.395 20.262L112.179 22.614ZM121.027 19.058C121.269 19.3287 121.451 19.632 121.573 19.968C121.703 20.304 121.769 20.654 121.769 21.018C121.769 21.4287 121.689 21.816 121.531 22.18C121.381 22.5347 121.171 22.8473 120.901 23.118C120.63 23.3887 120.313 23.6033 119.949 23.762C119.594 23.9113 119.211 23.986 118.801 23.986H113.551V14.214H118.801C119.221 14.214 119.613 14.2933 119.977 14.452C120.341 14.6013 120.658 14.8207 120.929 15.11C121.171 15.3807 121.358 15.6933 121.489 16.048C121.629 16.4027 121.699 16.7807 121.699 17.182C121.699 17.9007 121.475 18.526 121.027 19.058ZM115.777 17.854C115.777 17.938 115.823 17.98 115.917 17.98H118.717C118.913 17.98 119.085 17.9053 119.235 17.756C119.384 17.5973 119.459 17.4107 119.459 17.196C119.468 16.9813 119.398 16.804 119.249 16.664C119.099 16.5147 118.922 16.44 118.717 16.44H115.917C115.823 16.44 115.777 16.482 115.777 16.566V17.854ZM115.777 21.634C115.777 21.718 115.823 21.76 115.917 21.76H118.787C118.992 21.76 119.169 21.69 119.319 21.55C119.468 21.4007 119.543 21.2187 119.543 21.004C119.533 20.7893 119.454 20.6073 119.305 20.458C119.165 20.2993 118.997 20.22 118.801 20.22H115.917C115.823 20.22 115.777 20.262 115.777 20.346V21.634ZM125.553 14.2V19.324C125.553 19.3427 125.557 19.3567 125.567 19.366C125.576 19.366 125.585 19.3567 125.595 19.338L129.067 14.2H131.097V24.014H128.857V18.596C128.857 18.5773 128.852 18.568 128.843 18.568C128.833 18.5587 128.824 18.5633 128.815 18.582L125.301 24.014H123.312V14.2H125.553ZM142.1 21.774C142.193 21.774 142.24 21.816 142.24 21.9V24.77H140V24.084C140 24.028 139.977 24 139.93 24H134.708C134.652 24 134.624 24.028 134.624 24.084V24.77H132.398V21.9C132.398 21.816 132.445 21.774 132.538 21.774H133.588L136.29 14.242H139.202L141.54 21.774H142.1ZM136.024 21.592C136.005 21.6387 136.01 21.6807 136.038 21.718C136.066 21.7553 136.103 21.774 136.15 21.774H139.02C139.132 21.774 139.179 21.7133 139.16 21.592L137.83 17.252C137.811 17.1867 137.769 17.154 137.704 17.154C137.639 17.154 137.597 17.1867 137.578 17.252L136.024 21.592ZM153.256 24.014H150.876L150.512 23.02C150.493 22.9547 150.451 22.922 150.386 22.922H146.158C146.102 22.922 146.06 22.9547 146.032 23.02L145.682 24.014H143.302L146.83 14.2H149.728L153.256 24.014ZM146.942 20.5C146.923 20.5467 146.928 20.5887 146.956 20.626C146.984 20.6633 147.021 20.682 147.068 20.682H149.49C149.611 20.682 149.653 20.6213 149.616 20.5L148.412 17.14C148.384 17.0747 148.337 17.042 148.272 17.042C148.206 17.042 148.164 17.0747 148.146 17.14L146.942 20.5ZM161.993 14.2V24.014H159.753V21.494C159.753 21.4007 159.707 21.354 159.613 21.354H156.645C156.561 21.354 156.519 21.4007 156.519 21.494V24.014H154.279V14.2H156.519V18.974C156.519 19.0673 156.561 19.114 156.645 19.114H159.613C159.707 19.114 159.753 19.0673 159.753 18.974V14.2H161.993ZM165.789 14.2V19.324C165.789 19.3427 165.793 19.3567 165.803 19.366C165.812 19.366 165.821 19.3567 165.831 19.338L169.303 14.2H171.333V24.014H169.093V18.596C169.093 18.5773 169.088 18.568 169.079 18.568C169.069 18.5587 169.06 18.5633 169.051 18.582L165.537 24.014H163.549V14.2H165.789ZM175.252 16.468C175.178 16.468 175.14 16.5053 175.14 16.58V18.442C175.14 18.526 175.178 18.568 175.252 18.568H179.802V20.794H175.252C175.178 20.794 175.14 20.836 175.14 20.92V21.648C175.14 21.7227 175.178 21.76 175.252 21.76H180.88V24H172.9V14.2H180.88V16.468H175.252Z" fill="white"/>
</svg>
