<svg width="23" height="22" viewBox="0 0 23 22" fill="none" xmlns="http://www.w3.org/2000/svg">
<path d="M9.15964 11.3525L6.28827 14.0382C5.70532 14.5836 4.97663 14.9263 4.19579 15.0301L2.64434 18.9884C2.57805 19.1551 2.61851 19.3442 2.74426 19.4719C2.8705 19.5987 3.05962 19.6386 3.2268 19.5748L4.77484 18.9767C5.32319 18.7642 5.9422 19.0069 6.20005 19.5353L6.92874 21.0258C7.00721 21.1862 7.17391 21.2861 7.3523 21.2788C7.53167 21.2715 7.68959 21.1599 7.75442 20.9927L11.0908 12.4882C10.3153 12.3542 9.63585 11.9399 9.15964 11.3525Z" fill="#00A525"/>
<path d="M5.60831 13.3122L8.63956 10.4661C8.50893 10.1191 8.42558 9.74378 8.42558 9.35189V4.89349C8.42558 4.50209 8.50893 4.12727 8.63956 3.77974L5.60197 0.933715C5.0702 0.436549 4.38733 0.175781 3.6874 0.175781C3.30965 0.175781 2.928 0.251818 2.5678 0.408279C1.54081 0.853778 0.876465 1.86663 0.876465 2.98623L0.876465 11.2592C0.876465 12.3788 1.54081 13.3916 2.56878 13.8376C2.92849 13.9936 3.30868 14.0701 3.68789 14.0701C4.38635 14.0701 5.07702 13.8083 5.60831 13.3122Z" fill="#00A525"/>
<path d="M19.5757 15.0301C18.7943 14.9263 18.0652 14.5836 17.4837 14.0382L14.6113 11.3525C14.1351 11.9399 13.4557 12.3537 12.6797 12.4872L16.0156 20.9922C16.0814 21.1589 16.2383 21.271 16.4182 21.2788C16.5961 21.2856 16.7638 21.1867 16.8427 21.0253L17.5699 19.5343C17.8283 19.0069 18.4468 18.7642 18.9961 18.9757L20.5442 19.5733C20.7113 19.6381 20.8995 19.5972 21.0267 19.4705C21.1525 19.3433 21.1924 19.1536 21.1266 18.987L19.5757 15.0301Z" fill="#00A525"/>
<path d="M21.1977 0.407792C20.8375 0.251818 20.4603 0.175781 20.0825 0.175781C19.3826 0.175781 18.7002 0.437037 18.1689 0.933227L15.1265 3.77925C15.2571 4.1263 15.3351 4.50112 15.3351 4.893V9.35141C15.3351 9.74329 15.2571 10.1186 15.127 10.4656L18.1606 13.3117C18.6919 13.8083 19.3831 14.0701 20.0811 14.0701C20.4593 14.0701 20.837 13.9941 21.1968 13.8371C22.2233 13.3911 22.8837 12.3783 22.8837 11.2587V2.98623C22.8837 1.86663 22.2247 0.853778 21.1977 0.407792Z" fill="#00A525"/>
<path d="M14.3108 9.35153V4.89312C14.3108 3.68482 13.3462 2.72168 12.1384 2.72168H12.1106H11.6597H11.6319C10.4236 2.72168 9.49023 3.68482 9.49023 4.89312V9.35153C9.49023 10.5598 10.4236 11.5512 11.6319 11.5512H11.6597H12.1106H12.1384C13.3467 11.5512 14.3108 10.5603 14.3108 9.35153Z" fill="#00A525"/>
</svg>
