<svg width="167" height="38" viewBox="0 0 167 38" fill="none" xmlns="http://www.w3.org/2000/svg">
<rect width="167" height="38" rx="19" fill="#92DDFD"/>
<mask id="mask0_1237_1524" style="mask-type:alpha" maskUnits="userSpaceOnUse" x="0" y="0" width="68" height="38">
<rect width="68" height="38" rx="19" fill="#48D2EC"/>
</mask>
<g mask="url(#mask0_1237_1524)">
<path d="M12.0465 29.2638C12.0465 29.2638 10.0404 26.29 10.0008 24.5894C9.97814 23.65 10.4535 22.572 11.3816 22.0146C12.3097 21.4572 13.5858 21.0865 13.5858 21.0865L33.981 21.1402C33.981 21.1402 35.5627 21.0554 36.2644 22.9455C36.8756 24.5923 35.5203 27.6736 35.5203 27.6736C35.5203 27.6736 25.085 31.4935 22.2696 31.2813C19.4542 31.0691 12.0465 29.2638 12.0465 29.2638Z" fill="#FBB75A"/>
<path d="M18.1011 22.1193L13.0023 21.2422C13.0023 21.2422 12.1789 21.5619 11.8874 21.7203C11.596 21.8788 11.3838 22.0118 11.3838 22.0118C11.3838 22.0118 15.8997 26.3523 23.1999 26.1797C33.3975 25.942 35.2424 21.5336 35.2424 21.5336C35.2424 21.5336 34.8972 21.2223 34.4048 21.129C33.6154 20.979 32.4666 21.0837 32.4666 21.0837L18.1011 22.1193Z" fill="#CF6E21"/>
<path d="M10.7699 27.2181L10.6426 26.3749C10.6426 26.3749 10.8463 26.2844 11.664 26.6267C13.7918 27.5152 18.0559 29.162 22.4332 29.162C28.1064 29.162 32.4639 27.3228 34.6426 26.1712C35.6386 25.6449 36.0376 25.5374 36.0376 25.5374L35.5198 28.1207L22.6935 32.3424L11.6725 29.0771L10.7699 27.2181Z" fill="#CF6E21"/>
<path d="M14.4348 28.1744L11.8317 27.883L10.3037 26.9125C10.3037 26.9125 11.5544 29.244 11.7666 30.3588C11.9788 31.4737 13.2889 37.7071 13.2889 37.7071C13.2889 37.7071 15.08 40.9922 22.9545 40.9724C31.412 40.9526 34.134 37.2799 34.134 37.2799L34.9461 30.3956L35.5148 28.3952L36.126 26.0212L33.2059 27.5887L31.1347 28.995H28.7183L26.2481 30.0306L23.4865 29.7929L21.4945 30.6956L18.7866 29.527L16.5824 29.7929L14.4348 28.1744Z" fill="#A9E7FF"/>
<path d="M16.6933 30.8824C15.6832 30.7352 15.6832 32.1047 15.8162 33.2195C15.9492 34.3344 16.4415 39.968 16.4415 39.968C16.4415 39.968 16.832 40.1604 17.4177 40.316C17.8902 40.4433 18.5269 40.5763 18.5269 40.5763C18.5269 40.5763 17.9695 33.9892 17.944 33.3808C17.9185 32.7725 17.7827 31.0408 16.6933 30.8824ZM21.6054 31.918C20.8103 31.8812 20.3831 32.5829 20.4906 34.1222C20.5981 35.6614 20.8612 40.8932 20.8612 40.8932C20.8612 40.8932 21.3366 40.9668 21.8657 40.9922C22.3977 41.0177 22.9579 40.9724 22.9579 40.9724L22.7457 34.3344C22.7202 33.5393 22.7485 31.9717 21.6054 31.918ZM12.0473 29.2639C11.4616 29.2837 11.5436 29.8807 11.7813 30.9163C12.019 31.9519 12.6302 35.319 12.7377 35.8482C12.8452 36.3801 13.1083 37.5996 13.1083 37.5996C13.1083 37.5996 13.5045 38.0948 13.7025 38.2731C13.9374 38.4853 14.3307 38.7909 14.3307 38.7909C14.3307 38.7909 13.2413 31.4935 13.1083 30.8286C12.9754 30.1665 12.7886 29.2356 12.0473 29.2639ZM26.5712 31.652C25.2668 31.6803 25.4281 33.511 25.4281 33.9099C25.4281 34.3089 25.5073 40.8423 25.5073 40.8423C25.5073 40.8423 26.1977 40.7885 26.5684 40.7348C26.9391 40.681 27.6012 40.5565 27.6012 40.5565C27.6012 40.5565 27.6323 34.3344 27.6323 33.7515C27.6351 33.1658 27.8219 31.6265 26.5712 31.652ZM31.0617 30.1665C30.0063 30.2485 29.9469 31.4398 29.9186 32.7159C29.8931 33.9892 29.845 39.9397 29.845 39.9397C29.845 39.9397 30.4618 39.7161 30.8212 39.569C31.2682 39.3822 31.6191 39.1842 31.6191 39.1842C31.6191 39.1842 31.8851 32.8517 31.8851 32.2405C31.8851 31.6293 32.1199 30.0816 31.0617 30.1665ZM33.3508 38.0552C33.58 37.8854 34.1402 37.2827 34.1402 37.2827C34.1402 37.2827 34.9381 32.2915 35.0428 31.519C35.1504 30.7494 35.5408 28.3754 35.5408 28.3754C35.5408 28.3754 35.2748 28.2424 34.9042 28.3754C34.5335 28.5084 34.0468 29.1082 33.9676 30.3561C33.8884 31.6067 33.3508 37.9477 33.3508 38.0552Z" fill="#4EC0F5"/>
<path d="M33.395 27.7755C32.3056 28.2537 31.0578 29.793 31.0578 29.793C31.0578 29.793 29.9968 28.9922 28.7744 29.3148C27.3681 29.6854 26.5702 31.1992 26.5702 31.1992C26.5702 31.1992 25.0309 30.1099 23.9953 30.1636C22.9597 30.2174 21.6581 31.4369 21.6581 31.4369C21.6581 31.4369 19.9859 30.1891 18.9757 30.0306C17.9656 29.8722 16.6386 30.4296 16.6386 30.4296C16.6386 30.4296 15.337 28.8621 14.1967 28.5706C13.0564 28.2792 12.1 28.8904 12.1 28.8904C12.1 28.8904 11.5426 27.8547 11.0106 27.5633C10.4787 27.2719 9.98068 27.3143 10.108 26.6352C10.1872 26.2108 10.8324 26.2787 11.1691 26.423C12.0972 26.822 12.3377 27.6171 12.3377 27.6171C12.3377 27.6171 12.9743 27.1926 14.4627 27.5095C16.0981 27.8604 16.8791 29.2101 16.8791 29.2101C16.8791 29.2101 17.8072 28.6583 18.9248 28.7319C20.5178 28.8394 21.4742 30.1919 21.4742 30.1919C21.4742 30.1919 22.589 29.0488 23.9161 28.9979C25.2431 28.9469 26.3325 29.7137 26.3325 29.7137C26.3325 29.7137 26.6523 28.7036 28.6159 28.2537C30.1354 27.9057 31.0069 28.5451 31.0069 28.5451C31.0069 28.5451 31.5388 27.2973 32.9989 26.8191C34.1646 26.4372 34.8041 26.7116 34.8041 26.7116C34.8041 26.7116 34.8579 25.7552 35.6813 25.4893C36.0576 25.3676 36.3943 25.5062 36.3321 25.9137C36.2783 26.2589 35.9246 26.0297 35.6558 26.6041C35.4577 27.0285 35.2314 27.7472 35.2314 27.7472C35.2314 27.7472 34.2891 27.3822 33.395 27.7755Z" fill="#D9EFF2"/>
<path d="M22.6149 7.06055C22.4791 7.28408 22.9346 8.36213 22.3772 9.31851C21.8198 10.2749 20.705 10.8578 19.3751 10.9115C18.0452 10.9653 17.4171 11.2567 16.7719 11.8934C16.0532 12.6036 16.0561 13.6449 16.0561 13.6449C16.0561 13.6449 14.9186 14.0665 14.4885 15.0511C14.0358 16.0867 14.3301 16.9356 14.3301 16.9356C14.3301 16.9356 12.6663 17.4534 12.2843 18.9813C11.9929 20.1499 12.1485 21.0695 12.8644 21.6807C13.5802 22.2919 18.8431 24.7168 24.0212 24.2669C29.1992 23.817 34.3772 20.7894 34.4055 19.966C34.431 19.1426 34.564 17.841 33.3954 17.1789C32.2268 16.514 31.4289 16.5961 31.4289 16.5961C31.4289 16.5961 31.8278 14.8163 31.4826 14.2334C31.1374 13.6505 30.7385 13.277 30.0764 12.9318C29.4114 12.5866 29.0945 12.6121 29.0945 12.6121C29.0945 12.6121 29.1879 11.1436 28.4409 10.6597C27.8043 10.2466 27.1308 10.0089 25.484 9.29304C24.2589 8.75826 23.8373 8.04522 23.5996 7.75378C23.3591 7.45951 22.7734 6.7974 22.6149 7.06055Z" fill="#FFE9C8"/>
<path d="M18.2319 14.2588C18.1725 14.4654 19.3015 15.1105 20.6738 15.3482C22.3743 15.6396 25.8575 15.4699 27.8976 14.6323C29.8358 13.8344 29.833 12.8016 29.6774 12.1084C29.4397 11.0473 28.4295 10.6738 28.4295 10.6738C28.4295 10.6738 27.9259 11.6302 27.128 11.9754C26.33 12.3206 24.4003 12.9035 23.011 13.1978C21.5 13.5147 18.2857 14.0721 18.2319 14.2588ZM15.79 18.6672C15.79 18.8851 17.9094 19.7849 20.8351 20.181C25.5349 20.8177 29.2529 19.5982 30.6083 18.588C31.9636 17.5779 32.1221 16.9667 32.0683 15.8802C32.0145 14.7936 31.4854 14.2334 31.4854 14.2334C31.4854 14.2334 31.194 15.0313 30.3423 15.8009C29.4934 16.5706 27.4732 17.3147 25.5349 17.7392C23.5967 18.1636 21.3387 18.3758 19.8532 18.5088C18.529 18.6248 15.79 18.455 15.79 18.6672Z" fill="#FFCB86"/>
<path d="M34.3269 18.2428C34.3269 18.2428 34.5646 19.0407 34.5646 19.6491C34.5646 20.2602 34.3778 20.9761 34.1939 21.2704C34.0072 21.5618 31.9643 24.3772 26.0421 24.9884C20.1199 25.5996 16.9593 24.3517 15.3125 23.5284C13.6657 22.705 12.4434 21.4826 12.4434 21.1912C12.4434 20.8686 13.479 21.8278 15.0465 22.3598C16.1755 22.7417 20.8357 24.165 25.6686 23.0756C30.5014 21.9863 32.6801 20.6055 33.3422 19.8613C34.0044 19.1171 34.1685 18.455 34.3269 18.2428Z" fill="#FFCF86"/>
<path d="M16.5188 15.7189C16.9291 16.2933 17.2743 16.9328 17.7723 16.6357C18.2703 16.3358 17.8714 15.7387 17.4922 15.1615C17.113 14.5843 16.7141 13.9476 16.2387 14.2843C15.7634 14.6239 16.2217 15.3001 16.5188 15.7189Z" fill="#A681CB"/>
<path d="M24.4274 12.9912C24.0935 13.2374 24.2237 13.7693 24.815 14.5644C25.3922 15.3426 25.7997 15.8604 26.2185 15.5604C26.6712 15.235 26.3288 14.6352 25.7912 13.8967C25.2536 13.1582 24.8744 12.663 24.4274 12.9912Z" fill="#49C0F5"/>
<path d="M27.1958 20.6592C26.8874 21.3921 26.4261 22.2834 27.0458 22.473C27.7023 22.671 27.8918 21.7571 28.2314 21.0384C28.5709 20.3225 28.7181 19.8104 28.2908 19.6038C27.7532 19.3435 27.5155 19.9009 27.1958 20.6592Z" fill="#A681CB"/>
<path d="M28.4565 3.12031C28.1481 3.85315 27.6869 4.74446 28.3066 4.93403C28.963 5.1321 29.1526 4.21816 29.4921 3.49946C29.8317 2.78359 29.9788 2.27145 29.5515 2.06489C29.0139 1.80458 28.7763 2.36199 28.4565 3.12031Z" fill="#A681CB"/>
<path d="M17.9354 17.7703C17.576 18.506 17.2704 19.1964 17.7571 19.4228C18.3145 19.6831 18.5749 19.2247 18.9625 18.3956C19.3077 17.6628 19.5708 17.0516 19.1125 16.8507C18.5183 16.5961 18.2438 17.1365 17.9354 17.7703Z" fill="#ED4889"/>
<path d="M17.3183 21.576C16.8797 22.0146 17.3381 22.473 17.8163 22.8719C18.2945 23.2709 19.0104 23.7491 19.3895 23.3303C19.814 22.8606 18.9708 22.422 18.5237 22.057C17.9635 21.5958 17.6975 21.194 17.3183 21.576ZM24.6468 8.07069C24.0498 8.01127 24.0696 8.94784 24.0894 9.48545C24.1092 10.0231 24.0894 10.6201 24.627 10.6399C25.1844 10.6597 25.1448 9.92403 25.125 9.34398C25.1052 8.76675 25.224 8.12728 24.6468 8.07069Z" fill="#72E38D"/>
<path d="M34.1767 7.50803C33.7381 7.9466 34.1965 8.40499 34.6747 8.80395C35.1529 9.20291 35.8688 9.6811 36.2479 9.26233C36.6724 8.79263 35.8292 8.35406 35.3821 7.98905C34.8219 7.52783 34.5559 7.12604 34.1767 7.50803ZM41.5052 -5.9973C40.9082 -6.05672 40.928 -5.12015 40.9478 -4.58254C40.9676 -4.04493 40.9478 -3.4479 41.4854 -3.42809C42.0428 -3.40829 42.0032 -4.14396 41.9834 -4.72402C41.9636 -5.30124 42.0824 -5.94071 41.5052 -5.9973Z" fill="#72E38D"/>
<path d="M27.1757 13.7665C26.8446 13.9589 26.8559 14.4428 27.3935 15.3397C27.8689 16.1348 28.3103 16.7545 28.8281 16.4348C29.4534 16.05 28.7885 15.419 28.4093 14.8021C28.0302 14.1853 27.8321 13.3874 27.1757 13.7665Z" fill="#FD6660"/>
<path d="M41.2225 4.09825C40.8915 4.29066 40.9028 4.77451 41.4404 5.67147C41.9158 6.46657 42.3572 7.08623 42.875 6.7665C43.5003 6.38168 42.8354 5.7507 42.4562 5.13386C42.0771 4.51702 41.879 3.7191 41.2225 4.09825Z" fill="#FD6660"/>
<path d="M20.374 15.0427C21.3304 15.3737 22.1227 14.5475 21.9784 13.6958C21.8454 12.9177 21.0729 12.6942 21.0107 12.714C20.9484 12.7338 19.7544 13.3959 19.6723 13.461C19.5903 13.526 19.3696 14.6946 20.374 15.0427ZM22.6348 21.245C23.3903 21.7628 24.4882 21.1459 24.4769 20.2377C24.4684 19.4709 23.8147 19.1059 23.7525 19.1115C23.6902 19.12 22.3377 19.5642 22.2472 19.6095C22.1566 19.6576 21.7888 20.6678 22.6348 21.245ZM31.1885 20.1839C31.9327 20.3508 32.6655 19.6406 32.4335 18.8257C32.2382 18.1382 31.5705 17.9712 31.5167 17.9939C31.463 18.0165 30.4415 18.6843 30.3736 18.7465C30.3057 18.8088 30.1104 19.9434 31.1885 20.1839ZM13.8718 20.2801C14.7207 20.6027 15.5525 19.8189 15.4167 19.0153C15.2922 18.2825 14.565 18.0703 14.5084 18.0929C14.4518 18.1127 13.3285 18.7352 13.2521 18.7946C13.1757 18.854 12.955 19.9321 13.8718 20.2801Z" fill="#ED4889"/>
<path d="M20.2633 12.8102C19.8134 13.028 19.5559 13.4581 19.6266 13.7665C19.6945 14.0636 20.334 14.2447 20.8999 13.9844C21.4856 13.7184 21.5762 13.1525 21.4064 12.8979C21.2706 12.6913 20.6736 12.6121 20.2633 12.8102ZM13.6818 18.2089C13.2913 18.4353 13.1244 18.9644 13.263 19.2445C13.4724 19.6604 14.0638 19.7482 14.5278 19.4624C15.0654 19.1342 15.105 18.4664 14.9155 18.2768C14.7287 18.0901 14.2703 17.8694 13.6818 18.2089ZM22.8042 19.0662C22.3486 19.236 22.0798 19.6831 22.176 20.0424C22.2666 20.3707 22.7985 20.4471 23.3107 20.2716C24.0379 20.0226 24.1482 19.4539 23.9983 19.2671C23.8483 19.0804 23.4408 18.8257 22.8042 19.0662ZM31.5672 19.1455C31.14 19.5105 30.4694 19.4426 30.359 19.1455C30.2458 18.8399 30.4524 18.3956 30.758 18.1721C31.0636 17.9486 31.5616 17.8976 31.8191 18.124C32.1218 18.3872 31.8841 18.8738 31.5672 19.1455Z" fill="#FFA5AA"/>
<path d="M7.04843 2.11418C6.59854 2.33205 6.34105 2.76214 6.41179 3.07056C6.4797 3.36766 7.11917 3.54875 7.68508 3.28843C8.27079 3.02246 8.36133 2.45655 8.19156 2.20189C8.05574 1.99534 7.45871 1.91611 7.04843 2.11418ZM0.466953 7.51291C0.0764786 7.73927 -0.0904638 8.2684 0.0481829 8.54852C0.257568 8.96446 0.848939 9.05218 1.31298 8.76639C1.85059 8.43817 1.8902 7.7704 1.70063 7.58082C1.51388 7.39407 1.05549 7.17337 0.466953 7.51291ZM9.58935 8.37026C9.13379 8.54003 8.86499 8.9871 8.96119 9.34645C9.05174 9.67467 9.58369 9.75107 10.0958 9.57564C10.823 9.32664 10.9334 8.75791 10.7834 8.57116C10.6334 8.38441 10.226 8.12975 9.58935 8.37026ZM18.3524 8.44949C17.9251 8.8145 17.2545 8.74659 17.1442 8.44949C17.031 8.1439 17.2376 7.69966 17.5431 7.47613C17.8487 7.2526 18.3467 7.20167 18.6042 7.42803C18.907 7.69117 18.6693 8.17785 18.3524 8.44949Z" fill="#FFA5AA"/>
</g>
<path d="M53.092 15.656C53.3627 16.1413 53.5213 16.664 53.568 17.224C53.6147 17.7747 53.638 18.358 53.638 18.974V19.926H53.624C53.6053 20.346 53.5587 20.752 53.484 21.144C53.4187 21.536 53.288 21.9093 53.092 22.264C52.7467 22.8707 52.252 23.3093 51.608 23.58C51.0293 23.8507 50.264 23.986 49.312 23.986C48.3787 23.986 47.6133 23.8507 47.016 23.58C46.3813 23.3 45.8913 22.8613 45.546 22.264C45.2753 21.7787 45.1167 21.256 45.07 20.696C45.0233 20.136 45 19.5527 45 18.946V17.994H45.014C45.0327 17.574 45.0747 17.168 45.14 16.776C45.2053 16.384 45.3407 16.0107 45.546 15.656C45.8913 15.0587 46.3813 14.62 47.016 14.34C47.6133 14.0693 48.3787 13.934 49.312 13.934C50.264 13.934 51.0293 14.0693 51.608 14.34C52.252 14.6107 52.7467 15.0493 53.092 15.656ZM51.37 18.974C51.37 18.526 51.3607 18.106 51.342 17.714C51.3233 17.3127 51.2487 17 51.118 16.776C51.0993 16.7387 51.062 16.692 51.006 16.636C50.9593 16.5707 50.8707 16.51 50.74 16.454C50.6093 16.3887 50.432 16.3327 50.208 16.286C49.984 16.2393 49.6853 16.216 49.312 16.216C48.948 16.216 48.6493 16.2393 48.416 16.286C48.192 16.3327 48.0147 16.3887 47.884 16.454C47.7627 16.51 47.674 16.5707 47.618 16.636C47.5713 16.692 47.5387 16.7387 47.52 16.776C47.3893 17 47.3147 17.3033 47.296 17.686C47.2773 18.0687 47.268 18.4793 47.268 18.918V18.946C47.268 19.394 47.2773 19.8187 47.296 20.22C47.3147 20.612 47.3893 20.92 47.52 21.144C47.5387 21.172 47.5713 21.2187 47.618 21.284C47.674 21.3493 47.7627 21.4147 47.884 21.48C48.0147 21.536 48.192 21.5873 48.416 21.634C48.6493 21.6807 48.948 21.704 49.312 21.704C49.6853 21.704 49.984 21.6807 50.208 21.634C50.432 21.5873 50.6093 21.536 50.74 21.48C50.8707 21.4147 50.9593 21.3493 51.006 21.284C51.062 21.2187 51.0993 21.172 51.118 21.144C51.2487 20.92 51.3233 20.6167 51.342 20.234C51.3607 19.8513 51.37 19.436 51.37 18.988V18.974ZM62.2888 14.214V24H60.0488V21.522C59.9181 21.5407 59.7828 21.5593 59.6428 21.578C59.5121 21.5873 59.3768 21.592 59.2368 21.592C58.7141 21.592 58.2008 21.494 57.6968 21.298C57.1928 21.0927 56.7401 20.8033 56.3388 20.43C55.8908 20.0193 55.5501 19.548 55.3168 19.016C55.0835 18.484 54.9668 17.9193 54.9668 17.322V14.214H57.2068V17.322C57.2068 17.602 57.2581 17.868 57.3608 18.12C57.4728 18.3627 57.6175 18.5773 57.7948 18.764C57.9815 18.9413 58.1961 19.086 58.4388 19.198C58.6908 19.3007 58.9568 19.352 59.2368 19.352C59.5261 19.352 59.7968 19.296 60.0488 19.184V14.214H62.2888ZM66.1508 16.468C66.0762 16.468 66.0388 16.5053 66.0388 16.58V18.442C66.0388 18.526 66.0762 18.568 66.1508 18.568H70.7008V20.794H66.1508C66.0762 20.794 66.0388 20.836 66.0388 20.92V21.648C66.0388 21.7227 66.0762 21.76 66.1508 21.76H71.7788V24H63.7988V14.2H71.7788V16.468H66.1508ZM80.9738 14.2V24.014H78.7338V21.494C78.7338 21.4007 78.6871 21.354 78.5938 21.354H75.6258C75.5418 21.354 75.4998 21.4007 75.4998 21.494V24.014H73.2598V14.2H75.4998V18.974C75.4998 19.0673 75.5418 19.114 75.6258 19.114H78.5938C78.6871 19.114 78.7338 19.0673 78.7338 18.974V14.2H80.9738ZM87.0513 18.022C87.462 18.022 87.8493 18.1013 88.2133 18.26C88.5773 18.4187 88.8946 18.6333 89.1653 18.904C89.4453 19.1747 89.6646 19.492 89.8233 19.856C89.9913 20.22 90.0753 20.6073 90.0753 21.018C90.0753 21.4287 89.996 21.8207 89.8373 22.194C89.6786 22.558 89.464 22.8753 89.1933 23.146C88.9226 23.4167 88.6053 23.6313 88.2413 23.79C87.8773 23.9487 87.4853 24.028 87.0653 24.028H82.5993V14.172H84.8253V17.882C84.8253 17.9753 84.872 18.022 84.9653 18.022H87.0513ZM84.9653 20.262C84.872 20.262 84.8253 20.304 84.8253 20.388V21.648C84.8253 21.7413 84.872 21.788 84.9653 21.788H87.0653C87.28 21.788 87.462 21.7133 87.6113 21.564C87.77 21.4053 87.8446 21.2187 87.8353 21.004C87.8353 20.7893 87.7606 20.612 87.6113 20.472C87.462 20.332 87.28 20.262 87.0653 20.262H84.9653Z" fill="white"/>
<path d="M99.861 22.614L99.539 22.866C98.587 23.6033 97.495 23.972 96.263 23.972C95.5816 23.972 94.9283 23.8507 94.303 23.608C93.687 23.3653 93.1363 23.0153 92.651 22.558C92.147 22.082 91.7596 21.536 91.489 20.92C91.2183 20.304 91.083 19.6553 91.083 18.974C91.083 18.2927 91.2183 17.6487 91.489 17.042C91.7596 16.426 92.147 15.88 92.651 15.404C93.1363 14.9373 93.687 14.5827 94.303 14.34C94.9283 14.0973 95.5816 13.976 96.263 13.976C97.4856 13.976 98.573 14.3447 99.525 15.082L99.847 15.32L99.063 17.672L98.433 17.084C98.1436 16.8133 97.8123 16.608 97.439 16.468C97.075 16.328 96.683 16.258 96.263 16.258C95.843 16.258 95.4463 16.3327 95.073 16.482C94.709 16.622 94.3823 16.8273 94.093 17.098C93.533 17.63 93.253 18.2553 93.253 18.974C93.253 19.3287 93.323 19.6693 93.463 19.996C93.6123 20.3133 93.8223 20.598 94.093 20.85C94.3823 21.1207 94.709 21.3307 95.073 21.48C95.4463 21.62 95.843 21.69 96.263 21.69C96.683 21.69 97.0796 21.62 97.453 21.48C97.8263 21.3307 98.1576 21.1207 98.447 20.85L99.077 20.262L99.861 22.614ZM111.074 24H108.694L106.286 17.308C106.268 17.2427 106.221 17.21 106.146 17.21C106.081 17.21 106.039 17.2427 106.02 17.308L103.612 24H101.232L104.76 14.186H107.546L111.074 24ZM121.482 24.014H119.102L118.738 23.02C118.72 22.9547 118.678 22.922 118.612 22.922H114.384C114.328 22.922 114.286 22.9547 114.258 23.02L113.908 24.014H111.528L115.056 14.2H117.954L121.482 24.014ZM115.168 20.5C115.15 20.5467 115.154 20.5887 115.182 20.626C115.21 20.6633 115.248 20.682 115.294 20.682H117.716C117.838 20.682 117.88 20.6213 117.842 20.5L116.638 17.14C116.61 17.0747 116.564 17.042 116.498 17.042C116.433 17.042 116.391 17.0747 116.372 17.14L115.168 20.5ZM131.942 21.774C132.035 21.774 132.082 21.816 132.082 21.9V24.77H129.842V24.084C129.842 24.028 129.819 24 129.772 24H124.55C124.494 24 124.466 24.028 124.466 24.084V24.77H122.24V21.9C122.24 21.816 122.287 21.774 122.38 21.774H123.43L126.132 14.242H129.044L131.382 21.774H131.942ZM125.866 21.592C125.847 21.6387 125.852 21.6807 125.88 21.718C125.908 21.7553 125.945 21.774 125.992 21.774H128.862C128.974 21.774 129.021 21.7133 129.002 21.592L127.672 17.252C127.653 17.1867 127.611 17.154 127.546 17.154C127.481 17.154 127.439 17.1867 127.42 17.252L125.866 21.592ZM137.19 19.1L141.446 24.014H138.492L135.636 20.71C135.589 20.6633 135.538 20.654 135.482 20.682C135.426 20.7007 135.398 20.7427 135.398 20.808V24.014H133.102V14.2H135.398V17.406C135.398 17.4713 135.426 17.5133 135.482 17.532C135.538 17.5507 135.589 17.5367 135.636 17.49L138.492 14.2H141.446L137.19 19.1ZM149.738 15.656C150.009 16.1413 150.168 16.664 150.214 17.224C150.261 17.7747 150.284 18.358 150.284 18.974V19.926H150.27C150.252 20.346 150.205 20.752 150.13 21.144C150.065 21.536 149.934 21.9093 149.738 22.264C149.393 22.8707 148.898 23.3093 148.254 23.58C147.676 23.8507 146.91 23.986 145.958 23.986C145.025 23.986 144.26 23.8507 143.662 23.58C143.028 23.3 142.538 22.8613 142.192 22.264C141.922 21.7787 141.763 21.256 141.716 20.696C141.67 20.136 141.646 19.5527 141.646 18.946V17.994H141.66C141.679 17.574 141.721 17.168 141.786 16.776C141.852 16.384 141.987 16.0107 142.192 15.656C142.538 15.0587 143.028 14.62 143.662 14.34C144.26 14.0693 145.025 13.934 145.958 13.934C146.91 13.934 147.676 14.0693 148.254 14.34C148.898 14.6107 149.393 15.0493 149.738 15.656ZM148.016 18.974C148.016 18.526 148.007 18.106 147.988 17.714C147.97 17.3127 147.895 17 147.764 16.776C147.746 16.7387 147.708 16.692 147.652 16.636C147.606 16.5707 147.517 16.51 147.386 16.454C147.256 16.3887 147.078 16.3327 146.854 16.286C146.63 16.2393 146.332 16.216 145.958 16.216C145.594 16.216 145.296 16.2393 145.062 16.286C144.838 16.3327 144.661 16.3887 144.53 16.454C144.409 16.51 144.32 16.5707 144.264 16.636C144.218 16.692 144.185 16.7387 144.166 16.776C144.036 17 143.961 17.3033 143.942 17.686C143.924 18.0687 143.914 18.4793 143.914 18.918V18.946C143.914 19.394 143.924 19.8187 143.942 20.22C143.961 20.612 144.036 20.92 144.166 21.144C144.185 21.172 144.218 21.2187 144.264 21.284C144.32 21.3493 144.409 21.4147 144.53 21.48C144.661 21.536 144.838 21.5873 145.062 21.634C145.296 21.6807 145.594 21.704 145.958 21.704C146.332 21.704 146.63 21.6807 146.854 21.634C147.078 21.5873 147.256 21.536 147.386 21.48C147.517 21.4147 147.606 21.3493 147.652 21.284C147.708 21.2187 147.746 21.172 147.764 21.144C147.895 20.92 147.97 20.6167 147.988 20.234C148.007 19.8513 148.016 19.436 148.016 18.988V18.974Z" fill="#32A2D6"/>
</svg>
