<svg width="61" height="55" viewBox="0 0 61 55" fill="none" xmlns="http://www.w3.org/2000/svg">
<path d="M31.8457 55C31.8457 37.5906 17.7326 23.4774 0.323109 23.4774H0.000465393C0.000465393 40.8869 14.1136 55 31.5231 55H31.8457Z" fill="#A5C99A"/>
<path d="M31.2773 54.4369C21.0414 48.7657 0.569432 35.1968 0.569432 24.0402" stroke="#81BF60" stroke-width="0.8" stroke-linecap="round"/>
<path d="M39.5273 54.6981C39.5273 43.5063 48.6001 34.4336 59.7919 34.4336H59.9993C59.9993 45.6254 50.9265 54.6981 39.7348 54.6981H39.5273Z" fill="#A5C99A"/>
<path d="M39.8926 54.3363C46.4728 50.6905 59.6334 41.9677 59.6334 34.7955" stroke="#81BF60" stroke-width="0.8" stroke-linecap="round"/>
<path fill-rule="evenodd" clip-rule="evenodd" d="M29.3549 12.3948C34.1457 14.0699 40.0059 18.894 44.9078 25.6819C52.5268 36.2322 50.8546 43.9163 44.0658 42.2731C43.573 49.2387 35.7407 48.5022 28.1217 37.9518C23.2372 31.188 20.4901 24.1163 20.3687 19.0187C19.9884 18.4689 19.6987 17.8347 19.5296 17.1274C18.3696 12.2739 23.6387 8.43066 27.8629 11.049C28.4614 11.4199 28.9591 11.8784 29.3549 12.3948Z" fill="#D058AB"/>
<path fill-rule="evenodd" clip-rule="evenodd" d="M42.8777 18.9637C42.7747 24.0654 40.0253 31.1634 35.1234 37.9513C27.5045 48.5016 19.7239 49.2762 19.1794 42.2725C12.4425 43.9535 10.7184 36.2317 18.3374 25.6813C23.2218 18.9175 29.0579 14.1037 33.8392 12.4123C34.2414 11.8785 34.7513 11.4053 35.3678 11.025C39.5973 8.41525 44.8586 12.2692 43.6889 17.1203C43.5232 17.8075 43.2435 18.4254 42.8777 18.9637Z" fill="#D058AB"/>
<path fill-rule="evenodd" clip-rule="evenodd" d="M40.8707 33.9265C36.0171 35.4131 28.446 34.9787 20.5016 32.3817C8.17386 28.3518 5.03733 21.1464 11.4897 18.4612C7.81881 12.5345 14.5856 8.49864 26.9133 12.5285C34.8297 15.1164 41.1917 19.2222 44.2623 23.2811C44.8988 23.5032 45.5112 23.8486 46.0675 24.3263C49.8438 27.5688 47.8385 33.7566 42.8882 34.1367C42.1789 34.1911 41.5001 34.1131 40.8707 33.9265Z" fill="#D058AB"/>
<path fill-rule="evenodd" clip-rule="evenodd" d="M26.0592 36.603C23.1668 32.4126 21.248 25.0508 21.248 16.6689C21.248 3.62791 27.0902 -1.59983 31.6224 3.74425C36.0906 -1.59964 41.9968 3.62791 41.9968 16.6689C41.9968 25.0208 40.0917 32.3601 37.2166 36.558C37.2028 37.2228 37.0675 37.9021 36.793 38.5696C34.8966 43.1802 28.3644 43.1737 26.4773 38.5592C26.2119 37.91 26.0779 37.2499 26.0592 36.603Z" fill="#D058AB"/>
<path fill-rule="evenodd" clip-rule="evenodd" d="M18.9509 23.3238C22.009 19.251 28.388 15.1252 36.3324 12.5282C48.6601 8.49831 55.4073 12.4728 51.756 18.4609C58.1884 21.0848 55.0718 28.3515 42.7441 32.3814C34.8277 34.9692 27.282 35.4097 22.4264 33.9418C21.7818 34.1386 21.0846 34.2212 20.3554 34.1638C15.4059 33.7736 13.4131 27.5818 17.1959 24.3469C17.738 23.8834 18.3327 23.5451 18.9509 23.3238Z" fill="#D058AB"/>
<path d="M29.9728 15.8068C30.2041 14.0125 32.8022 14.0125 33.0336 15.8068C33.2003 17.0997 34.7961 17.6159 35.6888 16.6659C36.9277 15.3474 39.0213 16.8915 38.1591 18.482C37.5374 19.6287 38.5223 20.9896 39.8041 20.7481C41.5872 20.4121 42.3831 22.8945 40.7457 23.6764C39.5677 24.2389 39.5677 25.9199 40.7457 26.4824C42.3831 27.2643 41.5872 29.7468 39.8041 29.4107C38.5223 29.1692 37.5374 30.5301 38.1591 31.6768C39.0213 33.2673 36.9277 34.8114 35.6888 33.4929C34.7961 32.5429 33.2003 33.0591 33.0336 34.352C32.8022 36.1464 30.2041 36.1464 29.9728 34.352C29.8061 33.0591 28.2102 32.5429 27.3175 33.4929C26.0787 34.8114 23.985 33.2673 24.8473 31.6768C25.4689 30.5301 24.484 29.1692 23.2023 29.4107C21.4192 29.7468 20.6233 27.2643 22.2606 26.4824C23.4387 25.9199 23.4387 24.2389 22.2606 23.6764C20.6233 22.8945 21.4192 20.4121 23.2023 20.7481C24.484 20.9896 25.4689 19.6287 24.8473 18.482C23.985 16.8915 26.0787 15.3474 27.3175 16.6659C28.2102 17.6159 29.8061 17.0997 29.9728 15.8068Z" fill="#F4B442"/>
<path d="M38.4805 21.064L24.5736 29.1419" stroke="#DC8433" stroke-width="0.4" stroke-linecap="round"/>
<path d="M39.5566 25.1029L23.4984 25.1029" stroke="#DC8433" stroke-width="0.4" stroke-linecap="round"/>
<path d="M38.4805 29.142L24.5736 21.064" stroke="#DC8433" stroke-width="0.4" stroke-linecap="round"/>
<path d="M35.541 32.0986L27.5119 18.1072" stroke="#DC8433" stroke-width="0.4" stroke-linecap="round"/>
<path d="M31.5273 33.1809L31.5273 17.025" stroke="#DC8433" stroke-width="0.4" stroke-linecap="round"/>
<path d="M27.5117 32.0986L35.5408 18.1072" stroke="#DC8433" stroke-width="0.4" stroke-linecap="round"/>
<path d="M24.5742 29.142L38.4811 21.064" stroke="#DC8433" stroke-width="0.4" stroke-linecap="round"/>
<path d="M23.498 25.1029H39.5563" stroke="#DC8433" stroke-width="0.4" stroke-linecap="round"/>
<path d="M24.5742 21.064L38.4811 29.1419" stroke="#DC8433" stroke-width="0.4" stroke-linecap="round"/>
<path d="M27.5117 18.1073L35.5408 32.0987" stroke="#DC8433" stroke-width="0.4" stroke-linecap="round"/>
</svg>
