<svg width="32" height="32" viewBox="0 0 32 32" fill="none" xmlns="http://www.w3.org/2000/svg">
<rect width="32" height="32" rx="7.11111" fill="#33AADE"/>
<path fill-rule="evenodd" clip-rule="evenodd" d="M7.84398 15.7493C12.4575 13.6565 15.5287 12.266 17.0709 11.5913C21.4603 9.67758 22.383 9.34714 22.9762 9.33337C23.108 9.33337 23.398 9.36091 23.5957 9.52613C23.7539 9.66381 23.7934 9.84279 23.8198 9.98047C23.8462 10.1182 23.8725 10.4073 23.8462 10.6276C23.6089 13.2435 22.5808 19.5906 22.0535 22.5094C21.8294 23.7485 21.3944 24.1616 20.9726 24.2029C20.0499 24.2855 19.3513 23.5696 18.4682 22.9638C17.0709 22.0138 16.2932 21.4217 14.9356 20.4855C13.367 19.4116 14.3819 18.8196 15.2783 17.8558C15.5155 17.608 19.5622 13.7529 19.6413 13.4087C19.6545 13.3674 19.6545 13.2022 19.5622 13.1196C19.47 13.037 19.3381 13.0645 19.2327 13.0921C19.0877 13.1196 16.8732 14.6616 12.5629 17.7044C11.9302 18.1587 11.3634 18.379 10.8493 18.3652C10.2825 18.3515 9.20166 18.0348 8.38441 17.7594C7.39581 17.429 6.60493 17.25 6.67083 16.6718C6.71038 16.3689 7.10582 16.066 7.84398 15.7493Z" fill="white"/>
</svg>
