<?xml version="1.0"?>
<svg xmlns="http://www.w3.org/2000/svg" xmlns:xlink="http://www.w3.org/1999/xlink" version="1.1" xml:space="preserve">
	<defs>
		<symbol id="arrow-left" width="100%" height="100%" viewBox="0 0 17 11">
			<path fill-rule="evenodd" clip-rule="evenodd" d="M5.70711 9.70711C5.31658 10.0976 4.68342 10.0976 4.29289 9.70711L0.292894 5.70711C-0.0976312 5.31658 -0.0976312 4.68342 0.292894 4.29289L4.29289 0.292894C4.68342 -0.0976312 5.31658 -0.0976312 5.70711 0.292894C6.09763 0.683417 6.09763 1.31658 5.70711 1.70711L3.41421 4L15 4C15.5523 4 16 4.44771 16 5C16 5.55228 15.5523 6 15 6L3.41421 6L5.70711 8.29289C6.09763 8.68342 6.09763 9.31658 5.70711 9.70711Z" fill="currentColor" />
		</symbol>
		<symbol id="arrow" width="100%" height="100%" viewBox="0 0 11 18">
			<path d="M7.23223 9.23877L1.11612 3.12265C0.627961 2.6345 0.627961 1.84304 1.11612 1.35489C1.60427 0.866731 2.39573 0.866731 2.88388 1.35489L9.88388 8.35489C10.372 8.84304 10.372 9.6345 9.88388 10.1227L2.88388 17.1227C2.39573 17.6108 1.60427 17.6108 1.11612 17.1227C0.627961 16.6345 0.627961 15.843 1.11612 15.3549L7.23223 9.23877Z" fill="currentColor" />
		</symbol>
		<symbol id="badge-contur" width="100%" height="100%" viewBox="0 0 18 17">
			<path d="M7.22222 3.66667H2.77778C1.79594 3.66667 1 4.46261 1 5.44444V13.4444C1 14.4263 1.79594 15.2222 2.77778 15.2222H15.2222C16.2041 15.2222 17 14.4263 17 13.4444V5.44444C17 4.46261 16.2041 3.66667 15.2222 3.66667H10.7778M7.22222 3.66667V2.77778C7.22222 1.79594 8.01816 1 9 1C9.98184 1 10.7778 1.79594 10.7778 2.77778V3.66667M7.22222 3.66667C7.22222 4.64851 8.01816 5.44444 9 5.44444C9.98184 5.44444 10.7778 4.64851 10.7778 3.66667M6.33333 10.7778C7.31517 10.7778 8.11111 9.98184 8.11111 9C8.11111 8.01816 7.31517 7.22222 6.33333 7.22222C5.35149 7.22222 4.55556 8.01816 4.55556 9C4.55556 9.98184 5.35149 10.7778 6.33333 10.7778ZM6.33333 10.7778C7.49442 10.7778 8.48214 11.5198 8.84822 12.5556M6.33333 10.7778C5.17225 10.7778 4.18444 11.5198 3.81836 12.5556M11.6667 8.11111H14.3333M11.6667 11.6667H13.4444" stroke="currentColor" fill="none" stroke-width="1.6" stroke-linecap="round" stroke-linejoin="round" />
		</symbol>
		<symbol id="bag" width="100%" height="100%" viewBox="0 0 14 14">
			<path fill-rule="evenodd" clip-rule="evenodd" d="M3.5 3.5V2.625C3.5 1.17525 4.67525 0 6.125 0H7.875C9.32475 0 10.5 1.17525 10.5 2.625V3.5H12.25C13.2165 3.5 14 4.2835 14 5.25V8.37442C11.8209 9.18289 9.46303 9.62495 7.00002 9.62495C4.537 9.62495 2.17907 9.18288 0 8.3744V5.25C0 4.2835 0.783502 3.5 1.75 3.5H3.5ZM5.25 2.625C5.25 2.14175 5.64175 1.75 6.125 1.75H7.875C8.35825 1.75 8.75 2.14175 8.75 2.625V3.5H5.25V2.625ZM6.125 7C6.125 6.51675 6.51675 6.125 7 6.125H7.00875C7.492 6.125 7.88375 6.51675 7.88375 7C7.88375 7.48325 7.492 7.875 7.00875 7.875H7C6.51675 7.875 6.125 7.48325 6.125 7Z" fill="currentColor" />
			<path d="M0 10.2307V12.25C0 13.2165 0.783502 14 1.75 14H12.25C13.2165 14 14 13.2165 14 12.25V10.2307C11.8013 10.9729 9.44685 11.375 7.00002 11.375C4.55317 11.375 2.19869 10.9729 0 10.2307Z" fill="currentColor" />
		</symbol>
		<symbol id="balcony-glazing" width="100%" height="100%" viewBox="0 0 15 16">
			<path d="M14.0625 1.40625V0.46875C14.0625 0.209717 13.8528 0 13.5938 0H0.46875C0.209717 0 0 0.209717 0 0.46875V1.40625C0 1.66528 0.209717 1.875 0.46875 1.875H13.5938C13.8528 1.875 14.0625 1.66528 14.0625 1.40625Z" fill="currentColor" />
			<path d="M3.75 2.8125H6.5625V5.65625H3.75V2.8125Z" fill="currentColor" />
			<path d="M7.5 6.59375H10.3125V9.40625H7.5V6.59375Z" fill="currentColor" />
			<path d="M3.75 6.59375H6.5625V9.40625H3.75V6.59375Z" fill="currentColor" />
			<path d="M3.75 10.3438H6.5625V13.1875H3.75V10.3438Z" fill="currentColor" />
			<path d="M0.9375 2.8125H2.8125V13.1875H0.9375V2.8125Z" fill="currentColor" />
			<path d="M11.25 2.8125H13.125V13.1875H11.25V2.8125Z" fill="currentColor" />
			<path d="M7.5 2.8125H10.3125V5.65625H7.5V2.8125Z" fill="currentColor" />
			<path d="M7.5 10.3438H10.3125V13.1875H7.5V10.3438Z" fill="currentColor" />
			<path d="M0 15.5312C0 15.7903 0.209717 16 0.46875 16H13.5938C13.8528 16 14.0625 15.7903 14.0625 15.5312V14.5938C14.0625 14.3347 13.8528 14.125 13.5938 14.125H0.46875C0.209717 14.125 0 14.3347 0 14.5938V15.5312Z" fill="currentColor" />
		</symbol>
		<symbol id="book-contur" width="100%" height="100%" viewBox="0 0 18 15">
			<path d="M9 2.14266V14M9 2.14266C7.96187 1.43495 6.55244 1 5 1C3.44756 1 2.03813 1.43495 1 2.14266V14C2.03813 13.2923 3.44756 12.8573 5 12.8573C6.55244 12.8573 7.96187 13.2923 9 14M9 2.14266C10.0381 1.43495 11.4476 1 13 1C14.5524 1 15.9619 1.43495 17 2.14266V14C15.9619 13.2923 14.5524 12.8573 13 12.8573C11.4476 12.8573 10.0381 13.2923 9 14" fill="none" stroke="currentColor" stroke-width="1.6" stroke-linecap="round" stroke-linejoin="round" />
		</symbol>
		<symbol id="calendar" width="100%" height="100%" viewBox="0 0 16 16">
			<path fill-rule="evenodd" clip-rule="evenodd" d="M4 0C3.44772 0 3 0.447715 3 1V2H2C0.895431 2 0 2.89543 0 4V14C0 15.1046 0.895431 16 2 16H14C15.1046 16 16 15.1046 16 14V4C16 2.89543 15.1046 2 14 2H13V1C13 0.447715 12.5523 0 12 0C11.4477 0 11 0.447715 11 1V2H5V1C5 0.447715 4.55228 0 4 0ZM4 5C3.44772 5 3 5.44772 3 6C3 6.55228 3.44772 7 4 7H12C12.5523 7 13 6.55228 13 6C13 5.44772 12.5523 5 12 5H4Z" fill="currentColor" />
		</symbol>
		<symbol id="chart" width="100%" height="100%" viewBox="0 0 18 16">
			<path d="M4.09091 8.72727H0.818182C0.327273 8.72727 0 9.01818 0 9.45455V15.2727C0 15.7091 0.327273 16 0.818182 16H4.09091C4.58182 16 4.90909 15.7091 4.90909 15.2727V9.45455C4.90909 9.01818 4.58182 8.72727 4.09091 8.72727ZM17.1818 5.81818H13.9091C13.4182 5.81818 13.0909 6.10909 13.0909 6.54545V15.2727C13.0909 15.7091 13.4182 16 13.9091 16H17.1818C17.6727 16 18 15.7091 18 15.2727V6.54545C18 6.10909 17.6727 5.81818 17.1818 5.81818ZM10.6364 0H7.36364C6.87273 0 6.54545 0.290909 6.54545 0.727273V15.2727C6.54545 15.7091 6.87273 16 7.36364 16H10.6364C11.1273 16 11.4545 15.7091 11.4545 15.2727V0.727273C11.4545 0.290909 11.1273 0 10.6364 0Z" fill="currentColor" />
		</symbol>
		<symbol id="chart-contur" width="100%" height="100%" viewBox="0 0 18 16">
			<path d="M0.818182 9.52727H4.09091C4.09742 9.52727 4.10347 9.52741 4.10909 9.52764V15.1996C4.10347 15.1999 4.09742 15.2 4.09091 15.2H0.818182C0.81167 15.2 0.805617 15.1999 0.8 15.1996V9.52764C0.805617 9.52741 0.81167 9.52727 0.818182 9.52727ZM4.17041 9.53796C4.17038 9.53798 4.16984 9.53776 4.16883 9.53721L4.17041 9.53796ZM4.17041 15.1893C4.17043 15.1893 4.16992 15.1896 4.16883 15.1901L4.17041 15.1893ZM0.738685 15.1893C0.738702 15.1893 0.739245 15.1895 0.74026 15.1901L0.738685 15.1893ZM0.738685 9.53796C0.738667 9.53793 0.739175 9.53766 0.74026 9.53721L0.738685 9.53796ZM13.9091 6.61818H17.1818C17.1883 6.61818 17.1944 6.61832 17.2 6.61855V15.1996C17.1944 15.1999 17.1883 15.2 17.1818 15.2H13.9091C13.9026 15.2 13.8965 15.1999 13.8909 15.1996V6.61855C13.8965 6.61832 13.9026 6.61818 13.9091 6.61818ZM17.2613 6.62887C17.2613 6.62889 17.2608 6.62867 17.2597 6.62812L17.2613 6.62887ZM17.2613 15.1893C17.2613 15.1893 17.2608 15.1896 17.2598 15.19L17.2613 15.1893ZM13.8296 15.1893C13.8296 15.1893 13.8301 15.1895 13.8312 15.1901L13.8296 15.1893ZM13.8296 6.62887C13.8296 6.62884 13.8301 6.62856 13.8312 6.62812L13.8296 6.62887ZM7.36364 0.8H10.6364C10.6429 0.8 10.6489 0.800133 10.6545 0.800369V15.1996C10.6489 15.1999 10.6429 15.2 10.6364 15.2H7.36364C7.35713 15.2 7.35107 15.1999 7.34545 15.1996V0.800369C7.35107 0.800133 7.35713 0.8 7.36364 0.8ZM10.7159 0.810685C10.7158 0.810711 10.7153 0.810488 10.7143 0.809938L10.7159 0.810685ZM10.7159 15.1893C10.7159 15.1893 10.7154 15.1896 10.7143 15.1901L10.7159 15.1893ZM7.28414 15.1893C7.28415 15.1893 7.28469 15.1895 7.28572 15.1901L7.28414 15.1893ZM7.28414 0.810685C7.28412 0.810659 7.28463 0.810384 7.28572 0.809937L7.28414 0.810685Z" stroke="currentColor" fill="none" stroke-width="1.6" stroke-linecap="round" stroke-linejoin="round" />
		</symbol>
		<symbol id="chat" width="100%" height="100%" viewBox="0 0 18 16">
			<path fill-rule="evenodd" clip-rule="evenodd" d="M18 8C18 12.4183 13.9706 16 9 16C7.32191 16 5.75108 15.5918 4.40637 14.8809L0 16L1.50559 12.4312C0.554401 11.1626 0 9.63886 0 8C0 3.58172 4.02944 0 9 0C13.9706 0 18 3.58172 18 8ZM5.625 6.85714H3.375V9.14286H5.625V6.85714ZM14.625 6.85714H12.375V9.14286H14.625V6.85714ZM7.875 6.85714H10.125V9.14286H7.875V6.85714Z" fill="currentColor" />
		</symbol>
		<symbol id="chat-contur" width="100%" height="100%" viewBox="0 0 20 18">
			<path d="M6 9H6.01M10 9H10.01M14 9H14.01M19 9C19 13.4183 14.9706 17 10 17C8.46073 17 7.01172 16.6565 5.74467 16.0511L1 17L2.39499 13.28C1.51156 12.0423 1 10.5743 1 9C1 4.58172 5.02944 1 10 1C14.9706 1 19 4.58172 19 9Z" stroke="currentColor" fill="none" stroke-width="1.6" stroke-linecap="round" stroke-linejoin="round" />
		</symbol>
		<symbol id="check" width="100%" height="100%" viewBox="0 0 14 14">
			<path fill-rule="evenodd" clip-rule="evenodd" d="M7 14C10.866 14 14 10.866 14 7C14 3.13401 10.866 0 7 0C3.13401 0 0 3.13401 0 7C0 10.866 3.13401 14 7 14ZM10.2437 5.86872C10.5854 5.52701 10.5854 4.97299 10.2437 4.63128C9.90201 4.28957 9.34799 4.28957 9.00628 4.63128L6.125 7.51256L4.99372 6.38128C4.65201 6.03957 4.09799 6.03957 3.75628 6.38128C3.41457 6.72299 3.41457 7.27701 3.75628 7.61872L5.50628 9.36872C5.84799 9.71043 6.40201 9.71043 6.74372 9.36872L10.2437 5.86872Z" fill="currentColor" />
		</symbol>
		<symbol id="check-2" width="100%" height="100%" viewBox="0 0 20 20">
			<path d="M7.70711 9.29289C7.31658 8.90237 6.68342 8.90237 6.29289 9.29289C5.90237 9.68342 5.90237 10.3166 6.29289 10.7071L7.70711 9.29289ZM9 12L8.29289 12.7071C8.68342 13.0976 9.31658 13.0976 9.70711 12.7071L9 12ZM13.7071 8.70711C14.0976 8.31658 14.0976 7.68342 13.7071 7.29289C13.3166 6.90237 12.6834 6.90237 12.2929 7.29289L13.7071 8.70711ZM18 10C18 14.4183 14.4183 18 10 18V20C15.5228 20 20 15.5228 20 10H18ZM10 18C5.58172 18 2 14.4183 2 10H0C0 15.5228 4.47715 20 10 20V18ZM2 10C2 5.58172 5.58172 2 10 2V0C4.47715 0 0 4.47715 0 10H2ZM10 2C14.4183 2 18 5.58172 18 10H20C20 4.47715 15.5228 0 10 0V2ZM6.29289 10.7071L8.29289 12.7071L9.70711 11.2929L7.70711 9.29289L6.29289 10.7071ZM9.70711 12.7071L13.7071 8.70711L12.2929 7.29289L8.29289 11.2929L9.70711 12.7071Z" fill="currentColor"/>
		</symbol>
		<symbol id="clipboard-list" width="100%" height="100%" viewBox="0 0 12 16">
			<path d="M5 0C4.44772 0 4 0.447715 4 1C4 1.55228 4.44772 2 5 2H7C7.55228 2 8 1.55228 8 1C8 0.447715 7.55228 0 7 0H5Z" fill="currentColor" />
			<path fill-rule="evenodd" clip-rule="evenodd" d="M0 3C0 1.89543 0.895431 1 2 1C2 2.65685 3.34315 4 5 4H7C8.65685 4 10 2.65685 10 1C11.1046 1 12 1.89543 12 3V14C12 15.1046 11.1046 16 10 16H2C0.895431 16 0 15.1046 0 14V3ZM3 7C2.44772 7 2 7.44772 2 8C2 8.55229 2.44772 9 3 9H3.01C3.56228 9 4.01 8.55229 4.01 8C4.01 7.44772 3.56228 7 3.01 7H3ZM6 7C5.44772 7 5 7.44772 5 8C5 8.55229 5.44772 9 6 9H9C9.55228 9 10 8.55229 10 8C10 7.44772 9.55228 7 9 7H6ZM3 11C2.44772 11 2 11.4477 2 12C2 12.5523 2.44772 13 3 13H3.01C3.56228 13 4.01 12.5523 4.01 12C4.01 11.4477 3.56228 11 3.01 11H3ZM6 11C5.44772 11 5 11.4477 5 12C5 12.5523 5.44772 13 6 13H9C9.55228 13 10 12.5523 10 12C10 11.4477 9.55228 11 9 11H6Z" fill="currentColor" />
		</symbol>
		<symbol id="compas" width="100%" height="100%" viewBox="0 0 16 16">
			<path d="M7.04313 7.04281C6.6525 7.43344 6.6525 8.06656 7.04313 8.45687C7.43344 8.8475 8.06688 8.8475 8.45719 8.45687C8.84781 8.06625 8.84781 7.43313 8.45719 7.04281C8.06656 6.6525 7.43344 6.6525 7.04313 7.04281ZM7.75 0C3.46969 0 0 3.46969 0 7.75C0 12.0303 3.46969 15.5 7.75 15.5C12.0303 15.5 15.5 12.0303 15.5 7.75C15.5 3.46969 12.0303 0 7.75 0ZM11.6919 4.62656L9.63031 9.1375C9.5306 9.35565 9.35565 9.5306 9.1375 9.63031L4.62687 11.6919C4.10656 11.9297 3.57031 11.3934 3.80813 10.8731L5.87 6.36219C5.96972 6.14404 6.14466 5.96909 6.36281 5.86938L10.8734 3.80781C11.3938 3.57031 11.9297 4.10625 11.6919 4.62656Z" fill="currentColor" />
		</symbol>
		<symbol id="concierge" width="100%" height="100%" viewBox="0 0 14 16">
			<path d="M4.90144 9.48486L4.70605 9.94215L6.58842 11.7647L8.47078 9.94212L8.27539 9.48486C7.21653 10.0145 5.96228 10.0155 4.90144 9.48486Z" fill="currentColor" />
			<path d="M3.60866 10.1145L2.12671 10.4439C0.891639 10.7182 0 11.8157 0 13.0947V15.9997H4.88389V13.4519L5.92257 12.4132L3.60866 10.1145Z" fill="currentColor" />
			<path d="M9.41172 0.94128C9.08909 0.699586 8.08237 0.00989196 6.61956 0.000103728C5.11835 -0.00987274 4.08336 0.702567 3.76465 0.94128V2.35295H9.41172C9.41172 1.56864 9.41172 1.72559 9.41172 0.94128Z" fill="currentColor" />
			<path d="M3.90508 6.9993C4.27537 8.12695 5.33655 8.94129 6.58806 8.94129C7.83961 8.94129 8.90075 8.12695 9.27107 6.9993C9.62803 6.86556 9.88218 6.52143 9.88218 6.11776C9.88218 5.76943 9.69285 5.46556 9.41159 5.3028V4.62524L7.91911 6.11776H5.25702L3.76453 4.62524V5.30283C3.48328 5.46559 3.29395 5.76946 3.29395 6.11779C3.29395 6.52143 3.54813 6.86556 3.90508 6.9993Z" fill="currentColor" />
			<path d="M7.52936 5.17655L9.41172 3.29419H3.76465L5.64701 5.17655H7.52936Z" fill="currentColor" />
			<path d="M11.05 10.4441L9.56801 10.1147L5.8252 13.8419V16H13.1766V13.0949C13.1766 11.8298 12.2985 10.7214 11.05 10.4441ZM10.8237 13.647H8.94131V12.7058H10.8237V13.647Z" fill="currentColor" />
		</symbol>
		<symbol id="cross" width="100%" height="100%" viewBox="0 0 12 12">
			<path fill-rule="evenodd" clip-rule="evenodd" d="M0.292893 0.292893C0.683417 -0.0976311 1.31658 -0.0976311 1.70711 0.292893L6 4.58579L10.2929 0.292893C10.6834 -0.0976311 11.3166 -0.0976311 11.7071 0.292893C12.0976 0.683417 12.0976 1.31658 11.7071 1.70711L7.41421 6L11.7071 10.2929C12.0976 10.6834 12.0976 11.3166 11.7071 11.7071C11.3166 12.0976 10.6834 12.0976 10.2929 11.7071L6 7.41421L1.70711 11.7071C1.31658 12.0976 0.683417 12.0976 0.292893 11.7071C-0.0976311 11.3166 -0.0976311 10.6834 0.292893 10.2929L4.58579 6L0.292893 1.70711C-0.0976311 1.31658 -0.0976311 0.683417 0.292893 0.292893Z" fill="currentColor" />
		</symbol>
		<symbol id="cross-1" width="100%" height="100%" viewBox="0 0 22 22">
			<path fill-rule="evenodd" clip-rule="evenodd" d="M11 22C17.0751 22 22 17.0751 22 11C22 4.92487 17.0751 0 11 0C4.92487 0 0 4.92487 0 11C0 17.0751 4.92487 22 11 22ZM9.22227 7.27773C8.6853 6.74076 7.8147 6.74076 7.27773 7.27773C6.74076 7.8147 6.74076 8.6853 7.27773 9.22227L9.05546 11L7.27773 12.7777C6.74076 13.3147 6.74076 14.1853 7.27773 14.7223C7.8147 15.2592 8.6853 15.2592 9.22227 14.7223L11 12.9445L12.7777 14.7223C13.3147 15.2592 14.1853 15.2592 14.7223 14.7223C15.2592 14.1853 15.2592 13.3147 14.7223 12.7777L12.9445 11L14.7223 9.22227C15.2592 8.6853 15.2592 7.8147 14.7223 7.27773C14.1853 6.74076 13.3147 6.74076 12.7777 7.27773L11 9.05546L9.22227 7.27773Z" fill="currentColor"/>
		</symbol>
		<symbol id="doc" width="100%" height="100%" viewBox="0 0 12 16">
			<path fill-rule="evenodd" clip-rule="evenodd" d="M0 2C0 0.895432 0.89543 0 2 0H6.58579C7.11622 0 7.62493 0.210714 8 0.585786L11.4142 4C11.7893 4.37507 12 4.88378 12 5.41421V14C12 15.1046 11.1046 16 10 16H2C0.89543 16 0 15.1046 0 14V2ZM2 8C2 7.44772 2.44772 7 3 7H9C9.55228 7 10 7.44772 10 8C10 8.55229 9.55228 9 9 9H3C2.44772 9 2 8.55229 2 8ZM3 11C2.44772 11 2 11.4477 2 12C2 12.5523 2.44772 13 3 13H9C9.55228 13 10 12.5523 10 12C10 11.4477 9.55228 11 9 11H3Z" fill="currentColor" />
		</symbol>
		<symbol id="doc-contur" width="100%" height="100%" viewBox="0 0 14 18">
			<path d="M4.42857 8.71428H9.57143M4.42857 12.1429H9.57143M11.2857 16.4286H2.71429C1.76751 16.4286 1 15.6611 1 14.7143V2.71429C1 1.76751 1.76751 1 2.71429 1H7.5021C7.72943 1 7.94745 1.09031 8.10819 1.25105L12.7489 5.89181C12.9097 6.05255 13 6.27057 13 6.4979V14.7143C13 15.6611 12.2325 16.4286 11.2857 16.4286Z" stroke="currentColor" fill="none" stroke-width="1.6" stroke-linecap="round" stroke-linejoin="round" />
		</symbol>
		<symbol id="door" width="100%" height="100%" viewBox="0 0 12 16">
			<path d="M11.5555 16C11.3103 16 11.1111 15.8008 11.1111 15.5556V0.88887H0.88887V15.5556C0.88887 15.8008 0.689765 16 0.444435 16C0.199106 16 0 15.8007 0 15.5556V0.444435C0 0.199106 0.199106 0 0.444435 0H11.5555C11.8008 0 11.9999 0.199106 11.9999 0.444435V15.5556C12 15.8008 11.8008 16 11.5555 16ZM10.5555 1.66668V15.5556H1.44444V1.66668H10.5555ZM3.66666 8.7222C3.66666 8.32337 3.39309 8.00002 3.05553 8.00002C2.71798 8.00002 2.44441 8.32337 2.44441 8.7222C2.44441 9.12107 2.71798 9.44446 3.05553 9.44446C3.39309 9.44446 3.66666 9.12107 3.66666 8.7222Z" fill="currentColor" />
		</symbol>
		<symbol id="edit" width="100%" height="100%" viewBox="0 0 18 17">
			<path d="M11 3.10004L2.40006 11.7C2.30006 11.8 2.30009 11.8 2.30009 11.9L1.00004 15.9C0.900037 16.3 1.30011 16.7 1.70011 16.6L3.30009 16.1L5.80009 15.3C5.90009 15.3 6.00004 15.2 6.00004 15.2L14.6 6.60004L11 3.10004Z" fill="currentColor" />
			<path d="M16.7001 0.900037C15.7001 3.65973e-05 14.2001 3.65973e-05 13.2001 0.900037L12 2.10005L15.4 5.50001L16.6 4.30006C17.1 3.80006 17.3 3.20005 17.3 2.60005C17.4 2.00005 17.2001 1.30004 16.7001 0.900037Z" fill="currentColor" />
		</symbol>
		<symbol id="emoji-smile" width="100%" height="100%" viewBox="0 0 20 20">
			<path d="M12.8284 12.8284C11.2663 14.3905 8.73367 14.3905 7.17157 12.8284M7 8H7.01M13 8H13.01M19 10C19 14.9706 14.9706 19 10 19C5.02944 19 1 14.9706 1 10C1 5.02944 5.02944 1 10 1C14.9706 1 19 5.02944 19 10Z" fill="none" stroke="currentColor" stroke-width="2" stroke-linecap="round" stroke-linejoin="round" />
		</symbol>
		<symbol id="eye" width="100%" height="100%" viewBox="0 0 14 12">
			<path d="M5.18759 6C5.18759 6.46413 5.37196 6.90925 5.70015 7.23744C6.02834 7.56563 6.47346 7.75 6.93759 7.75C7.40172 7.75 7.84684 7.56563 8.17503 7.23744C8.50322 6.90925 8.68759 6.46413 8.68759 6C8.68759 5.53587 8.50322 5.09075 8.17503 4.76256C7.84684 4.43437 7.40172 4.25 6.93759 4.25C6.47346 4.25 6.02834 4.43437 5.70015 4.76256C5.37196 5.09075 5.18759 5.53587 5.18759 6ZM13.722 5.59688C12.2407 2.47656 10.0017 0.90625 7.00009 0.90625C3.99696 0.90625 1.75947 2.47656 0.278215 5.59844C0.218802 5.72425 0.187988 5.86165 0.187988 6.00078C0.187988 6.13991 0.218802 6.27732 0.278215 6.40312C1.75947 9.52344 3.99853 11.0938 7.00009 11.0938C10.0032 11.0938 12.2407 9.52344 13.722 6.40156C13.8423 6.14844 13.8423 5.85469 13.722 5.59688ZM6.93759 8.75C5.41884 8.75 4.18759 7.51875 4.18759 6C4.18759 4.48125 5.41884 3.25 6.93759 3.25C8.45634 3.25 9.68759 4.48125 9.68759 6C9.68759 7.51875 8.45634 8.75 6.93759 8.75Z" fill="currentColor" />
		</symbol>
		<symbol id="eye-contur" width="100%" height="100%" viewBox="0 0 19 14">
			<path d="M17.1741 6.11029C17.5804 6.64171 17.5804 7.35914 17.1741 7.88971C15.8944 9.56029 12.8241 13 9.23955 13C5.65498 13 2.58469 9.56029 1.30497 7.88971C1.1073 7.63526 1 7.32222 1 7C1 6.67778 1.1073 6.36474 1.30497 6.11029C2.58469 4.43971 5.65498 1 9.23955 1C12.8241 1 15.8944 4.43971 17.1741 6.11029V6.11029Z" stroke="currentColor" stroke-width="1.6" stroke-linecap="round" stroke-linejoin="round" fill="none" />
			<path d="M9.2394 9.57145C10.6596 9.57145 11.8108 8.42018 11.8108 7.00002C11.8108 5.57986 10.6596 4.42859 9.2394 4.42859C7.81924 4.42859 6.66797 5.57986 6.66797 7.00002C6.66797 8.42018 7.81924 9.57145 9.2394 9.57145Z" stroke="currentColor" stroke-width="1.6" stroke-linecap="round" stroke-linejoin="round" fill="none" />
		</symbol>
		<symbol id="filter" width="100%" height="100%" viewBox="0 0 17 18">
			<path d="M8.76354 4.64583C8.76354 6.27277 7.44465 7.59167 5.81771 7.59167C4.19077 7.59167 2.87187 6.27277 2.87187 4.64583C2.87187 3.01889 4.19077 1.7 5.81771 1.7C7.44465 1.7 8.76354 3.01889 8.76354 4.64583Z" stroke="currentColor" stroke-width="1.9" fill="none" />
			<rect x="0.516504" y="3.67861" width="3.05735" height="1.93445" rx="0.967225" fill="currentColor" stroke="currentColor" stroke-width="0.3" />
			<circle cx="11.0031" cy="13.2155" r="2.94583" transform="rotate(-180 11.0031 13.2155)" stroke="currentColor" stroke-width="1.9" fill="none" />
			<rect x="8.71328" y="3.67861" width="7.20821" height="1.93445" rx="0.967225" fill="currentColor" stroke="currentColor" stroke-width="0.3" />
			<rect x="8.10801" y="14.1827" width="7.21167" height="1.93445" rx="0.967225" transform="rotate(-180 8.10801 14.1827)" fill="currentColor" stroke="currentColor" stroke-width="0.3" />
			<rect x="16.2188" y="14.1827" width="2.62969" height="1.93445" rx="0.967224" transform="rotate(-180 16.2188 14.1827)" fill="currentColor" stroke="currentColor" stroke-width="0.3" />
		</symbol>
		<symbol id="gal-ochka" width="100%" height="100%" viewBox="0 0 12 10">
			<path d="M6.23497 8.79934C5.9649 9.16589 5.54433 9.39118 5.0896 9.41357C4.63487 9.43619 4.19445 9.25292 3.88975 8.91452L1.15929 5.88444C0.725328 5.40316 0.763876 4.66128 1.24515 4.22732C1.72689 3.79336 2.46831 3.83214 2.90227 4.31365L4.83407 6.45758C4.8627 6.48944 4.90425 6.50652 4.94695 6.50444C4.98988 6.50236 5.02912 6.4809 5.05475 6.44673L9.02546 1.06128C9.40979 0.539605 10.1443 0.428577 10.6662 0.813137C11.1876 1.1977 11.2984 1.93219 10.9139 2.45363L6.23497 8.79934Z" fill="currentColor" />
		</symbol>
		<symbol id="gal-ochka-1" width="100%" height="100%" viewBox="0 0 14 14">
			<path fill-rule="evenodd" clip-rule="evenodd" d="M7 14C10.866 14 14 10.866 14 7C14 3.13401 10.866 0 7 0C3.13401 0 0 3.13401 0 7C0 10.866 3.13401 14 7 14ZM10.2437 5.86872C10.5854 5.52701 10.5854 4.97299 10.2437 4.63128C9.90201 4.28957 9.34799 4.28957 9.00628 4.63128L6.125 7.51256L4.99372 6.38128C4.65201 6.03957 4.09799 6.03957 3.75628 6.38128C3.41457 6.72299 3.41457 7.27701 3.75628 7.61872L5.50628 9.36872C5.84799 9.71043 6.40201 9.71043 6.74372 9.36872L10.2437 5.86872Z" fill="currentColor" />
		</symbol>
		<symbol id="gal-ochka-1-contur" width="100%" height="100%" viewBox="0 0 20 20">
			<path d="M7.70711 9.29289C7.31658 8.90237 6.68342 8.90237 6.29289 9.29289C5.90237 9.68342 5.90237 10.3166 6.29289 10.7071L7.70711 9.29289ZM9 12L8.29289 12.7071C8.68342 13.0976 9.31658 13.0976 9.70711 12.7071L9 12ZM13.7071 8.70711C14.0976 8.31658 14.0976 7.68342 13.7071 7.29289C13.3166 6.90237 12.6834 6.90237 12.2929 7.29289L13.7071 8.70711ZM18 10C18 14.4183 14.4183 18 10 18V20C15.5228 20 20 15.5228 20 10H18ZM10 18C5.58172 18 2 14.4183 2 10H0C0 15.5228 4.47715 20 10 20V18ZM2 10C2 5.58172 5.58172 2 10 2V0C4.47715 0 0 4.47715 0 10H2ZM10 2C14.4183 2 18 5.58172 18 10H20C20 4.47715 15.5228 0 10 0V2ZM6.29289 10.7071L8.29289 12.7071L9.70711 11.2929L7.70711 9.29289L6.29289 10.7071ZM9.70711 12.7071L13.7071 8.70711L12.2929 7.29289L8.29289 11.2929L9.70711 12.7071Z" fill="currentColor" />
		</symbol>
		<symbol id="glazing" width="100%" height="100%" viewBox="0 0 12 16">
			<path d="M5.33334 0H0V7.46666H5.33334V0Z" fill="currentColor" />
			<path d="M5.33334 8.53345H0V16.0001H5.33334V8.53345Z" fill="currentColor" />
			<path d="M11.7337 0H6.40039V7.46666H11.7337V0Z" fill="currentColor" />
			<path d="M11.7337 8.53345H6.40039V16.0001H11.7337V8.53345Z" fill="currentColor" />
		</symbol>
		<symbol id="heart" width="100%" height="100%" viewBox="0 0 20 18">
			<path d="M2.31802 2.31802C0.56066 4.07538 0.56066 6.92462 2.31802 8.68198L10.0001 16.364L17.682 8.68198C19.4393 6.92462 19.4393 4.07538 17.682 2.31802C15.9246 0.56066 13.0754 0.56066 11.318 2.31802L10.0001 3.63609L8.68198 2.31802C6.92462 0.56066 4.07538 0.56066 2.31802 2.31802Z" fill="currentColor" stroke="currentColor" stroke-width="1.6" stroke-linecap="round" stroke-linejoin="round" />
		</symbol>
		<symbol id="note" width="100%" height="100%" viewBox="0 0 18 18">
			<path fill-rule="evenodd" clip-rule="evenodd" d="M18 9C18 13.9706 13.9706 18 9 18C4.02944 18 0 13.9706 0 9C0 4.02944 4.02944 0 9 0C13.9706 0 18 4.02944 18 9ZM10 13C10 12.4477 9.55229 12 9 12C8.44771 12 8 12.4477 8 13C8 13.5523 8.44771 14 9 14C9.55229 14 10 13.5523 10 13ZM10 4V10H8V4H10Z" fill="currentColor" />
		</symbol>
		<symbol id="heart-contur" width="100%" height="100%" viewBox="0 0 20 18">
			<path d="M2.31802 2.31802C0.56066 4.07538 0.56066 6.92462 2.31802 8.68198L10.0001 16.364L17.682 8.68198C19.4393 6.92462 19.4393 4.07538 17.682 2.31802C15.9246 0.56066 13.0754 0.56066 11.318 2.31802L10.0001 3.63609L8.68198 2.31802C6.92462 0.56066 4.07538 0.56066 2.31802 2.31802Z" fill="none" stroke="currentColor" stroke-width="1.6" stroke-linecap="round" stroke-linejoin="round" />
		</symbol>
		<symbol id="link" width="100%" height="100%" viewBox="0 0 16 16">
			<path d="M10.3272 3.1272C11.0302 2.42425 12.1699 2.42425 12.8728 3.1272C13.5758 3.83014 13.5758 4.96984 12.8728 5.67278L10.1728 8.37278C9.46988 9.07572 8.33018 9.07572 7.62724 8.37278C7.27577 8.02131 6.70592 8.02131 6.35445 8.37278C6.00298 8.72425 6.00298 9.2941 6.35445 9.64557C7.76034 11.0515 10.0397 11.0515 11.4456 9.64557L14.1456 6.94557C15.5515 5.53968 15.5515 3.26029 14.1456 1.8544C12.7397 0.448516 10.4603 0.448516 9.05445 1.8544L7.70445 3.2044C7.35298 3.55587 7.35298 4.12572 7.70445 4.4772C8.05592 4.82867 8.62577 4.82867 8.97724 4.4772L10.3272 3.1272Z" fill="currentColor" />
			<path d="M5.82726 7.62719C6.5302 6.92425 7.6699 6.92425 8.37284 7.62719C8.72431 7.97867 9.29416 7.97867 9.64563 7.62719C9.99711 7.27572 9.99711 6.70587 9.64563 6.3544C8.23975 4.94852 5.96035 4.94852 4.55446 6.3544L1.85446 9.0544C0.448577 10.4603 0.448577 12.7397 1.85446 14.1456C3.26035 15.5515 5.53975 15.5515 6.94563 14.1456L8.29563 12.7956C8.6471 12.4441 8.6471 11.8743 8.29563 11.5228C7.94416 11.1713 7.37431 11.1713 7.02284 11.5228L5.67284 12.8728C4.9699 13.5757 3.8302 13.5757 3.12726 12.8728C2.42431 12.1698 2.42431 11.0301 3.12726 10.3272L5.82726 7.62719Z" fill="currentColor" />
		</symbol>
		<symbol id="lock" width="100%" height="100%" viewBox="0 0 16 18">
			<path d="M11.5 8.11111V8.91111H12.3V8.11111H11.5ZM4.5 8.11111H3.7V8.91111H4.5V8.11111ZM8.8 11.6667C8.8 11.2248 8.44183 10.8667 8 10.8667C7.55817 10.8667 7.2 11.2248 7.2 11.6667H8.8ZM7.2 13.4444C7.2 13.8863 7.55817 14.2444 8 14.2444C8.44183 14.2444 8.8 13.8863 8.8 13.4444H7.2ZM2.75 8.91111H13.25V7.31111H2.75V8.91111ZM14.2 9.88889V15.2222H15.8V9.88889H14.2ZM13.25 16.2H2.75V17.8H13.25V16.2ZM1.8 15.2222V9.88889H0.2V15.2222H1.8ZM2.75 16.2C2.23716 16.2 1.8 15.7742 1.8 15.2222H0.2C0.2 16.634 1.32984 17.8 2.75 17.8V16.2ZM14.2 15.2222C14.2 15.7742 13.7628 16.2 13.25 16.2V17.8C14.6702 17.8 15.8 16.634 15.8 15.2222H14.2ZM13.25 8.91111C13.7628 8.91111 14.2 9.33695 14.2 9.88889H15.8C15.8 8.47715 14.6702 7.31111 13.25 7.31111V8.91111ZM2.75 7.31111C1.32984 7.31111 0.2 8.47715 0.2 9.88889H1.8C1.8 9.33695 2.23716 8.91111 2.75 8.91111V7.31111ZM10.7 4.55556V8.11111H12.3V4.55556H10.7ZM11.5 7.31111H4.5V8.91111H11.5V7.31111ZM5.3 8.11111V4.55556H3.7V8.11111H5.3ZM8 1.8C9.47934 1.8 10.7 3.02178 10.7 4.55556H12.3C12.3 2.16197 10.3867 0.2 8 0.2V1.8ZM8 0.2C5.61334 0.2 3.7 2.16197 3.7 4.55556H5.3C5.3 3.02178 6.52066 1.8 8 1.8V0.2ZM7.2 11.6667V13.4444H8.8V11.6667H7.2Z" fill="currentColor" />
		</symbol>
		<symbol id="menu" width="100%" height="100%" viewBox="0 0 18 14">
			<path d="M1 1H17M1 7H17M1 13H17" fill="none" stroke="currentColor" stroke-width="2" stroke-linecap="round" stroke-linejoin="round" />
		</symbol>
		<symbol id="minus" width="100%" height="100%" viewBox="0 0 6 2">
			<path d="M5.27734 1.66406H0.792969V0.331055H5.27734V1.66406Z" fill="currentColor" />
		</symbol>
		<symbol id="pause" width="100%" height="100%" viewBox="0 0 6 6">
			<path d="M0 0.428572C0 0.191878 0.268629 0 0.6 0H1.8C2.13137 0 2.4 0.191878 2.4 0.428571V5.57143C2.4 5.80812 2.13137 6 1.8 6H0.6C0.268629 6 0 5.80812 0 5.57143V0.428572Z" fill="currentColor" />
			<path d="M3.6 0.428572C3.6 0.191878 3.86863 0 4.2 0H5.4C5.73137 0 6 0.191878 6 0.428571V5.57143C6 5.80812 5.73137 6 5.4 6H4.2C3.86863 6 3.6 5.80812 3.6 5.57143V0.428572Z" fill="currentColor" />
		</symbol>
		<symbol id="play" width="100%" height="100%" viewBox="0 0 47 52">
			<path d="M44.2443 21.5775L8.19476 0.660181C5.26574 -1.03853 0.780029 0.609923 0.780029 4.81147V46.636C0.780029 50.4053 4.94826 52.677 8.19476 50.7873L44.2443 29.8801C47.4601 28.0205 47.4703 23.437 44.2443 21.5775Z" fill="currentColor" />
		</symbol>
		<symbol id="plus" width="100%" height="100%" viewBox="0 0 14 14">
			<path d="M7 1V7M7 7V13M7 7H13M7 7L1 7" fill="none" stroke="currentColor" stroke-width="2" stroke-linecap="round" stroke-linejoin="round" />
		</symbol>
		<symbol id="search" width="100%" height="100%" viewBox="0 0 20 20">
			<path d="M19 19L13 13M15 8C15 11.866 11.866 15 8 15C4.13401 15 1 11.866 1 8C1 4.13401 4.13401 1 8 1C11.866 1 15 4.13401 15 8Z" stroke="currentColor" stroke-width="2" stroke-linecap="round" stroke-linejoin="round" fill="none" />
		</symbol>
		<symbol id="search-1" width="100%" height="100%" viewBox="0 0 18 18">
			<path d="M4.87876 11.9899C4.56634 12.3023 4.56634 12.8088 4.87876 13.1212C5.19118 13.4337 5.69771 13.4337 6.01013 13.1212L4.87876 11.9899ZM11.7556 8.11111C11.7556 9.14204 10.9198 9.97778 9.88889 9.97778V11.5778C11.8035 11.5778 13.3556 10.0257 13.3556 8.11111H11.7556ZM8.02222 8.11111C8.02222 7.08018 8.85796 6.24444 9.88889 6.24444V4.64444C7.9743 4.64444 6.42222 6.19652 6.42222 8.11111H8.02222ZM9.88889 6.24444C10.9198 6.24444 11.7556 7.08018 11.7556 8.11111H13.3556C13.3556 6.19652 11.8035 4.64444 9.88889 4.64444V6.24444ZM7.43759 9.43104L4.87876 11.9899L6.01013 13.1212L8.56896 10.5624L7.43759 9.43104ZM9.88889 9.97778C9.3732 9.97778 8.90763 9.76972 8.56896 9.43104L7.43759 10.5624C8.06405 11.1889 8.93182 11.5778 9.88889 11.5778V9.97778ZM8.56896 9.43104C8.23028 9.09237 8.02222 8.6268 8.02222 8.11111H6.42222C6.42222 9.06818 6.81112 9.93595 7.43759 10.5624L8.56896 9.43104ZM16.2 9C16.2 12.9765 12.9765 16.2 9 16.2V17.8C13.8601 17.8 17.8 13.8601 17.8 9H16.2ZM9 16.2C5.02355 16.2 1.8 12.9765 1.8 9H0.2C0.2 13.8601 4.13989 17.8 9 17.8V16.2ZM1.8 9C1.8 5.02355 5.02355 1.8 9 1.8V0.2C4.13989 0.2 0.2 4.13989 0.2 9H1.8ZM9 1.8C12.9765 1.8 16.2 5.02355 16.2 9H17.8C17.8 4.13989 13.8601 0.2 9 0.2V1.8Z" fill="currentColor" />
		</symbol>
		<symbol id="settings" width="100%" height="100%" viewBox="0 0 17 17">
			<path d="M7.19693 2.52457C7.52858 1.15848 9.47142 1.15848 9.80307 2.52457C10.0173 3.40706 11.0284 3.82585 11.8039 3.35333C13.0043 2.62186 14.3781 3.99566 13.6467 5.19614C13.1742 5.97164 13.5929 6.98269 14.4754 7.19693C15.8415 7.52858 15.8415 9.47142 14.4754 9.80307C13.5929 10.0173 13.1742 11.0284 13.6467 11.8039C14.3781 13.0043 13.0043 14.3781 11.8039 13.6467C11.0284 13.1742 10.0173 13.5929 9.80307 14.4754C9.47142 15.8415 7.52858 15.8415 7.19693 14.4754C6.98269 13.5929 5.97164 13.1742 5.19615 13.6467C3.99566 14.3781 2.62186 13.0043 3.35333 11.8039C3.82585 11.0284 3.40706 10.0173 2.52457 9.80307C1.15848 9.47142 1.15848 7.52858 2.52457 7.19693C3.40706 6.98269 3.82585 5.97164 3.35333 5.19614C2.62186 3.99566 3.99566 2.62186 5.19614 3.35333C5.97164 3.82585 6.98269 3.40706 7.19693 2.52457Z" stroke="currentColor" stroke-width="1.6" stroke-linecap="round" stroke-linejoin="round" fill="none" />
			<path d="M10.8333 8.5C10.8333 9.78866 9.78866 10.8333 8.5 10.8333C7.21134 10.8333 6.16667 9.78866 6.16667 8.5C6.16667 7.21134 7.21134 6.16667 8.5 6.16667C9.78866 6.16667 10.8333 7.21134 10.8333 8.5Z" stroke="currentColor" stroke-width="1.6" stroke-linecap="round" stroke-linejoin="round" fill="none" />
		</symbol>
		<symbol id="settings-1" width="100%" height="100%" viewBox="0 0 16 14">
			<path d="M7.1665 3.66669L14.6665 3.66669" fill="none" stroke="currentColor" stroke-width="2" stroke-linecap="round" />
			<path d="M1.3335 10.3333L9.66683 10.3333" fill="none" stroke="currentColor" stroke-width="2" stroke-linecap="round" />
			<ellipse cx="3.8335" cy="3.66669" rx="2.5" ry="2.5" transform="rotate(90 3.8335 3.66669)" fill="none" stroke="currentColor" stroke-width="2" stroke-linecap="round" />
			<ellipse cx="12.1665" cy="10.3333" rx="2.5" ry="2.5" transform="rotate(90 12.1665 10.3333)" fill="none" stroke="currentColor" stroke-width="2" stroke-linecap="round" />
		</symbol>
		<symbol id="send" width="100%" height="100%" viewBox="0 0 20 20">
			<path d="M19.309 11.118C19.7325 10.9063 20 10.4735 20 9.99999C20 9.52652 19.7325 9.0937 19.309 8.88196L1.80906 0.131978C1.36569 -0.0897087 0.833206 -0.028451 0.451756 0.288126C0.0703029 0.604702 -0.0880337 1.11678 0.0481471 1.59341L1.83385 7.84338C1.98717 8.38001 2.47766 8.74998 3.03575 8.74998L8.75003 8.74998C9.44038 8.74998 10 9.30962 10 9.99997C10 10.6903 9.44038 11.25 8.75003 11.25L3.03576 11.25C2.47766 11.25 1.98718 11.6199 1.83386 12.1566L0.0481464 18.4066C-0.0880345 18.8832 0.0703021 19.3953 0.451755 19.7118C0.833205 20.0284 1.36569 20.0897 1.80906 19.868L19.309 11.118Z" fill="currentColor" />
		</symbol>
		<symbol id="share" width="100%" height="100%" viewBox="0 0 20 16">
			<path d="M11.1637 4.89684V1L15.5129 5.23809L19 8.63612L15.451 11.5182L11.1637 15V11.1869C3.63703 10.6341 1 14.8784 1 14.8784C1 12.234 1.2236 9.48968 3.35706 7.4116C5.83702 4.99408 9.42852 4.82301 11.1637 4.89684Z" stroke="currentColor" fill="none" stroke-width="1.8" stroke-linecap="round" stroke-linejoin="round" />
		</symbol>
		<symbol id="star" width="100%" height="100%" viewBox="0 0 13 12">
			<path d="M6.30946 9.94987L2.41073 12L3.15536 7.65851L0 4.58336L4.35915 3.94989L6.30946 0L8.25914 3.94989L12.6183 4.58336L9.46356 7.65851L10.2088 12L6.30946 9.94987Z" fill="currentColor" />
		</symbol>
		<symbol id="to-right" width="100%" height="100%" viewBox="0 0 6 10">
			<path d="M4.09404 5L0.231231 1.29326C-0.0770772 0.997411 -0.0770772 0.517741 0.231231 0.221889C0.53954 -0.0739629 1.03941 -0.0739629 1.34772 0.221889L5.76877 4.46431C6.07708 4.76016 6.07708 5.23984 5.76877 5.53569L1.34772 9.77811C1.03941 10.074 0.53954 10.074 0.231231 9.77811C-0.0770772 9.48226 -0.0770772 9.00259 0.231231 8.70674L4.09404 5Z" fill="currentColor" />
		</symbol>
		<symbol id="to-right-double" width="100%" height="100%" viewBox="0 0 13 12">
			<path fill-rule="evenodd" clip-rule="evenodd" d="M0.292893 11.7071C0.683417 12.0976 1.31658 12.0976 1.70711 11.7071L6.70711 6.70711C7.09763 6.31658 7.09763 5.68342 6.70711 5.29289L1.70711 0.292894C1.31658 -0.0976307 0.683417 -0.0976306 0.292893 0.292894C-0.0976305 0.683418 -0.0976305 1.31658 0.292893 1.70711L4.58579 6L0.292893 10.2929C-0.0976305 10.6834 -0.0976305 11.3166 0.292893 11.7071ZM6.29289 11.7071C6.68342 12.0976 7.31658 12.0976 7.70711 11.7071L12.7071 6.70711C13.0976 6.31658 13.0976 5.68342 12.7071 5.29289L7.70711 0.292894C7.31658 -0.0976312 6.68342 -0.0976312 6.29289 0.292894C5.90237 0.683418 5.90237 1.31658 6.29289 1.70711L10.5858 6L6.29289 10.2929C5.90237 10.6834 5.90237 11.3166 6.29289 11.7071Z" fill="currentColor" />
		</symbol>
		<symbol id="to-left" width="100%" height="100%" viewBox="0 0 11 18">
			<path d="M3.76777 9L9.88388 2.88388C10.372 2.39573 10.372 1.60427 9.88388 1.11612C9.39573 0.627961 8.60427 0.627961 8.11612 1.11612L1.11612 8.11612C0.62796 8.60427 0.62796 9.39573 1.11612 9.88388L8.11612 16.8839C8.60427 17.372 9.39573 17.372 9.88388 16.8839C10.372 16.3957 10.372 15.6043 9.88388 15.1161L3.76777 9Z" fill="currentColor" />
		</symbol>
		<symbol id="to-left-double" width="100%" height="100%" viewBox="0 0 13 12">
			<path fill-rule="evenodd" clip-rule="evenodd" d="M12.7071 11.7071C12.3166 12.0976 11.6834 12.0976 11.2929 11.7071L6.29289 6.70711C5.90237 6.31658 5.90237 5.68342 6.29289 5.29289L11.2929 0.292894C11.6834 -0.0976307 12.3166 -0.0976306 12.7071 0.292894C13.0976 0.683418 13.0976 1.31658 12.7071 1.70711L8.41421 6L12.7071 10.2929C13.0976 10.6834 13.0976 11.3166 12.7071 11.7071ZM6.70711 11.7071C6.31658 12.0976 5.68342 12.0976 5.29289 11.7071L0.292894 6.70711C-0.0976312 6.31658 -0.0976312 5.68342 0.292894 5.29289L5.29289 0.292894C5.68342 -0.0976312 6.31658 -0.0976312 6.70711 0.292894C7.09763 0.683418 7.09763 1.31658 6.70711 1.70711L2.41421 6L6.70711 10.2929C7.09763 10.6834 7.09763 11.3166 6.70711 11.7071Z" fill="currentColor" />
		</symbol>
		<symbol id="to-down" width="100%" height="100%" viewBox="0 0 10 6">
			<path d="M5 4.09404L8.70674 0.231231C9.00259 -0.0770772 9.48226 -0.0770772 9.77811 0.231231C10.074 0.53954 10.074 1.03941 9.77811 1.34772L5.53569 5.76877C5.23983 6.07708 4.76016 6.07708 4.46431 5.76877L0.221888 1.34772C-0.0739642 1.03941 -0.0739641 0.53954 0.221888 0.231231C0.517739 -0.0770776 0.997412 -0.0770775 1.29326 0.231231L5 4.09404Z" fill="currentColor" />
		</symbol>
		<symbol id="triangle-right" width="100%" height="100%" viewBox="0 0 8 12">
			<path d="M7.73333 6.2L1.28 11.04C0.75261 11.4355 -8.68819e-07 11.0592 -8.09356e-07 10.4L-1.5607e-08 1.6C4.38553e-08 0.940764 0.752611 0.564457 1.28 0.959998L7.73333 5.8C7.86667 5.9 7.86667 6.1 7.73333 6.2Z" fill="currentColor" />
		</symbol>
		<symbol id="triangle-bottom" width="100%" height="100%" viewBox="0 0 13 8">
			<path d="M6.30483 7.75904L1.09253 1.30252C0.670127 0.779286 1.04255 5.22028e-07 1.715 5.5237e-07L11.2837 9.84123e-07C11.9561 1.01446e-06 12.3286 0.779285 11.9062 1.30252L6.69387 7.75904C6.59381 7.88299 6.40489 7.88299 6.30483 7.75904Z" fill="currentColor" />
		</symbol>
		<symbol id="user" width="100%" height="100%" viewBox="0 0 62 66">
			<path d="M31 26.625C38.2487 26.625 44.125 20.7487 44.125 13.5C44.125 6.25126 38.2487 0.375 31 0.375C23.7513 0.375 17.875 6.25126 17.875 13.5C17.875 20.7487 23.7513 26.625 31 26.625Z" fill="currentColor" />
			<path d="M0.375 66C0.375 49.0863 14.0863 35.375 31 35.375C47.9137 35.375 61.625 49.0863 61.625 66H0.375Z" fill="currentColor" />
		</symbol>
		<symbol id="cart-contur" width="100%" height="100%" viewBox="0 0 18 20">
			<path d="M5 6L5 5C5 2.79086 6.79086 1 9 1V1C11.2091 1 13 2.79086 13 5L13 6" stroke="currentColor" fill="none" stroke-width="2" stroke-linecap="round" />
			<path d="M12 12V10" stroke="currentColor" fill="none" stroke-width="2" stroke-linecap="round" />
			<path d="M6 12V10" stroke="currentColor" fill="none" stroke-width="2" stroke-linecap="round" />
			<path d="M1 10C1 8.11438 1 7.17157 1.58579 6.58579C2.17157 6 3.11438 6 5 6H13C14.8856 6 15.8284 6 16.4142 6.58579C17 7.17157 17 8.11438 17 10V11C17 14.7712 17 16.6569 15.8284 17.8284C14.6569 19 12.7712 19 9 19V19C5.22876 19 3.34315 19 2.17157 17.8284C1 16.6569 1 14.7712 1 11V10Z" stroke="currentColor" fill="none" stroke-width="2" />
		</symbol>
		<symbol id="services-bg-1" width="100%" height="100%" viewBox="0 0 1622 203">
			<path d="M1033.11 16.139C825.48 -51.911 110.275 112.636 0.651981 186.645C-16.8972 198.492 325.304 157.205 366.413 157.205L1621.28 203C1603.18 175.332 1291.36 100.778 1033.11 16.139Z" fill="currentColor" />
		</symbol>
		<symbol id="services-bg-2" width="100%" height="100%" viewBox="0 0 2373 164">
			<path d="M1991.62 10.402C2211.04 -29.6782 2280.63 55.1275 2317.79 110.92C2338.08 141.376 2326.77 144.864 2372.9 163.557L0 163.557C96.7617 114.302 233.253 14.7144 356.288 10.402C510.081 5.01142 771.53 35.785 1050.92 100.788C1330.31 165.792 1717.36 60.5023 1991.62 10.402Z" fill="currentColor" />
		</symbol>
		<symbol id="tel" width="100%" height="100%" viewBox="0 0 14 14">
			<path d="M0 0.875C0 0.391751 0.391751 0 0.875 0H2.75876C3.1865 0 3.55154 0.309236 3.62186 0.731151L4.26876 4.61254C4.33191 4.99144 4.14055 5.36723 3.79697 5.53901L2.44235 6.21632C3.41911 8.64353 5.35647 10.5809 7.78368 11.5576L8.46099 10.203C8.63277 9.85945 9.00856 9.66809 9.38746 9.73124L13.2688 10.3781C13.6908 10.4485 14 10.8135 14 11.2412V13.125C14 13.6082 13.6082 14 13.125 14H11.375C5.09276 14 0 8.90724 0 2.625V0.875Z" fill="currentColor" />
		</symbol>
		<symbol id="tel-2" width="100%" height="100%" viewBox="0 0 18 28">
			<path d="M9.00002 1H4.13726C2.41177 1 1 2.41176 1 4.13725V9.62746V23.7451C1 25.4706 2.41177 26.8824 4.13726 26.8824H13.8627C15.5882 26.8824 17 25.4706 17 23.7451V9.62746V4.13725C17 2.41176 15.5882 1 13.8627 1H9.00002Z" fill="rgba(0, 0, 0, 0)" stroke="currentColor" stroke-width="1.8" stroke-miterlimit="10" stroke-linecap="round" stroke-linejoin="round" />
			<path d="M6.96094 5.70589H11.0394" stroke="currentColor" stroke-width="1.8" stroke-miterlimit="10" stroke-linecap="round" stroke-linejoin="round" />
			<path d="M9.35591 22.1764C9.35591 22.3724 9.19701 22.5313 9.00103 22.5313C8.805 22.5313 8.64609 22.3724 8.64609 22.1764C8.64609 21.9804 8.80498 21.8215 9.00103 21.8215C9.19702 21.8215 9.35591 21.9804 9.35591 22.1764Z" fill="currentColor" stroke="currentColor" stroke-width="1.8" />
		</symbol>
		<symbol id="user-2" width="100%" height="100%" viewBox="0 0 14 18">
			<path d="M7.00085 8.07276C9.27946 8.07276 11.1266 6.2656 11.1266 4.03638C11.1266 1.80716 9.27946 0 7.00085 0C4.72225 0 2.875 1.80716 2.875 4.03638C2.875 6.2656 4.72225 8.07276 7.00085 8.07276Z" fill="currentColor" />
			<path d="M11.7947 18C13.3558 18 14.471 16.3636 13.8019 14.9455C12.5753 12.4364 10.0107 10.6909 7.00001 10.6909C3.98931 10.6909 1.31316 12.4364 0.198085 14.9455C-0.470959 16.3636 0.644033 18 2.20514 18H11.7947Z" fill="currentColor" />
		</symbol>
		<symbol id="shipped" width="100%" height="100%" viewBox="0 0 74 74">
			<path fill-rule="evenodd" clip-rule="evenodd" d="M37 74C57.4345 74 74 57.4345 74 37C74 16.5655 57.4345 0 37 0C16.5655 0 0 16.5655 0 37C0 57.4345 16.5655 74 37 74ZM54.1454 31.0204C55.9515 29.2142 55.9515 26.2858 54.1454 24.4796C52.3392 22.6735 49.4108 22.6735 47.6046 24.4796L32.375 39.7093L26.3954 33.7296C24.5892 31.9235 21.6608 31.9235 19.8546 33.7296C18.0485 35.5358 18.0485 38.4642 19.8546 40.2704L29.1046 49.5204C30.9108 51.3265 33.8392 51.3265 35.6454 49.5204L54.1454 31.0204Z" fill="currentColor" />
		</symbol>
		<symbol id="mail" width="100%" height="100%" viewBox="0 0 18 14">
			<path fill-rule="evenodd" clip-rule="evenodd" d="M0.87868 0.87868C0 1.75736 0 3.17157 0 6V8C0 10.8284 0 12.2426 0.87868 13.1213C1.75736 14 3.17157 14 6 14H12C14.8284 14 16.2426 14 17.1213 13.1213C18 12.2426 18 10.8284 18 8V6C18 3.17157 18 1.75736 17.1213 0.87868C16.2426 0 14.8284 0 12 0H6C3.17157 0 1.75736 0 0.87868 0.87868ZM3.5547 3.16795C3.09517 2.8616 2.4743 2.98577 2.16795 3.4453C1.8616 3.90483 1.98577 4.5257 2.4453 4.83205L7.8906 8.46225C8.5624 8.91012 9.4376 8.91012 10.1094 8.46225L15.5547 4.83205C16.0142 4.5257 16.1384 3.90483 15.8321 3.4453C15.5257 2.98577 14.9048 2.8616 14.4453 3.16795L9 6.79815L3.5547 3.16795Z" fill="currentColor" />
		</symbol>
		<!--  -->
		<!--  -->
		<!--  -->
		<symbol id="send-address" width="100%" height="100%" viewBox="0 0 15 14">
			<path d="M12.9229 0.0551904L0.574825 4.56862C-0.191608 4.8241 -0.191608 5.93116 0.574825 6.18664L5.59914 7.88982C5.85461 7.97498 6.02502 8.14531 6.11018 8.40079L7.81336 13.4252C8.06884 14.1916 9.17583 14.1916 9.4313 13.4252L13.9448 1.07709C14.2854 0.480971 13.6042 -0.200287 12.9229 0.0551904Z" fill="currentColor" />
		</symbol>
		<!--  -->
		<symbol id="cart" width="100%" height="100%" viewBox="0 0 18 20">
			<path d="M5 6L5 5C5 2.79086 6.79086 1 9 1V1C11.2091 1 13 2.79086 13 5L13 6" stroke="currentColor" fill="none" stroke-width="2" stroke-linecap="round" />
			<path fill-rule="evenodd" clip-rule="evenodd" d="M0.585786 5.58579C0 6.17157 0 7.11438 0 9V12C0 15.7712 0 17.6569 1.17157 18.8284C2.34315 20 4.22876 20 8 20H10C13.7712 20 15.6569 20 16.8284 18.8284C18 17.6569 18 15.7712 18 12V9C18 7.11438 18 6.17157 17.4142 5.58579C16.8284 5 15.8856 5 14 5H4C2.11438 5 1.17157 5 0.585786 5.58579ZM7 10C7 9.44772 6.55228 9 6 9C5.44772 9 5 9.44772 5 10V12C5 12.5523 5.44772 13 6 13C6.55228 13 7 12.5523 7 12V10ZM13 10C13 9.44772 12.5523 9 12 9C11.4477 9 11 9.44772 11 10V12C11 12.5523 11.4477 13 12 13C12.5523 13 13 12.5523 13 12V10Z" fill="currentColor" />
		</symbol>
		<symbol id="clock" width="100%" height="100%" viewBox="0 0 16 16">
			<path fill-rule="evenodd" clip-rule="evenodd" d="M8.00005 15.2C11.9765 15.2 15.2 11.9765 15.2 8C15.2 4.02355 11.9765 0.800003 8.00005 0.800003C4.0236 0.800003 0.800049 4.02355 0.800049 8C0.800049 11.9765 4.0236 15.2 8.00005 15.2ZM9.00005 4.4C9.00005 3.84772 8.55233 3.4 8.00005 3.4C7.44776 3.4 7.00005 3.84772 7.00005 4.4V8C7.00005 8.26522 7.10541 8.51957 7.29294 8.70711L9.83853 11.2527C10.2291 11.6432 10.8622 11.6432 11.2527 11.2527C11.6433 10.8622 11.6433 10.229 11.2527 9.83848L9.00005 7.58579V4.4Z" fill="currentColor" />
		</symbol>
		<symbol id="geo" width="100%" height="100%" viewBox="0 0 16 18">
			<path fill-rule="evenodd" clip-rule="evenodd" d="M8.39504 17.9043C10.0068 17.0864 16 13.6589 16 7.91677C16 3.54446 12.4183 0 8 0C3.58172 0 0 3.54446 0 7.91677C0 13.6589 5.99321 17.0864 7.60496 17.9043C7.85656 18.032 8.14344 18.032 8.39504 17.9043ZM7.99888 11.3097C9.89243 11.3097 11.4275 9.79062 11.4275 7.91678C11.4275 6.04293 9.89243 4.52388 7.99888 4.52388C6.10534 4.52388 4.57031 6.04293 4.57031 7.91678C4.57031 9.79062 6.10534 11.3097 7.99888 11.3097Z" fill="currentColor" />
		</symbol>
		<symbol id="clock" width="100%" height="100%" viewBox="0 0 16 16">
			<path fill-rule="evenodd" clip-rule="evenodd" d="M8 16C12.4183 16 16 12.4183 16 8C16 3.58172 12.4183 0 8 0C3.58172 0 0 3.58172 0 8C0 12.4183 3.58172 16 8 16ZM9 3.11127C9 2.55899 8.55229 2.11127 8 2.11127C7.44772 2.11127 7 2.55899 7 3.11127V7.47239C7 8.31615 7.68401 9.00016 8.52778 9.00016H11.1111C11.6634 9.00016 12.1111 8.55245 12.1111 8.00016C12.1111 7.44788 11.6634 7.00016 11.1111 7.00016H9V3.11127Z" fill="currentColor" />
		</symbol>
		<symbol id="burger-1" width="100%" height="100%" viewBox="0 0 14 11">
			<path d="M1 1H12.6667" fill="none" stroke="currentColor" stroke-width="2" stroke-linecap="round" />
			<path d="M1 5.16667H9.33333" fill="none" stroke="currentColor" stroke-width="2" stroke-linecap="round" />
			<path d="M1 9.33334H6" fill="none" stroke="currentColor" stroke-width="2" stroke-linecap="round" />
		</symbol>
		<symbol id="dashboard" width="100%" height="100%" viewBox="0 0 16 16">
			<rect x="1" y="1" width="5" height="5" rx="1" fill="none" stroke="currentColor" stroke-width="2" stroke-linejoin="round" />
			<rect x="1" y="9.33336" width="5" height="5" rx="1" fill="none" stroke="currentColor" stroke-width="2" stroke-linejoin="round" />
			<rect x="9.33398" y="9.33336" width="5" height="5" rx="1" fill="none" stroke="currentColor" stroke-width="2" stroke-linejoin="round" />
			<rect x="9.33398" y="1" width="5" height="5" rx="1" fill="none" stroke="currentColor" stroke-width="2" stroke-linejoin="round" />
		</symbol>
		<symbol id="settings-1" width="100%" height="100%" viewBox="0 0 31 34">
			<path fill-rule="evenodd" clip-rule="evenodd" d="M15.002 0C14.3464 2.09839e-08 13.7757 0.419159 12.6342 1.25748L8.25691 4.47226C8.0768 4.60454 7.98674 4.67068 7.8901 4.72628C7.79345 4.78188 7.69101 4.82649 7.48613 4.9157L2.5158 7.08002C1.21067 7.64833 0.558112 7.93248 0.228649 8.50252C-0.100813 9.07255 -0.0212733 9.77984 0.137806 11.1944L0.740407 16.5529C0.765515 16.7762 0.77807 16.8878 0.77807 16.9999C0.77807 17.112 0.765515 17.2236 0.740407 17.4469L0.137806 22.8054C-0.0212732 24.22 -0.100813 24.9272 0.228649 25.4973C0.558112 26.0673 1.21067 26.3515 2.5158 26.9198L7.48613 29.0841L7.48617 29.0841C7.69102 29.1733 7.79346 29.2179 7.8901 29.2735C7.98674 29.3291 8.0768 29.3953 8.25691 29.5275L12.6342 32.7423L12.6343 32.7424C13.7757 33.5807 14.3464 33.9998 15.002 33.9998C15.6575 33.9998 16.2282 33.5806 17.3697 32.7423L21.747 29.5275L21.747 29.5275C21.9271 29.3953 22.0172 29.3291 22.1138 29.2735C22.2105 29.2179 22.3129 29.1733 22.5177 29.0841L22.5178 29.0841L27.4881 26.9198C28.7932 26.3515 29.4458 26.0673 29.7753 25.4973C30.1047 24.9272 30.0252 24.22 29.8661 22.8054L29.2635 17.4469C29.2384 17.2236 29.2258 17.112 29.2258 16.9999C29.2258 16.8878 29.2384 16.7762 29.2635 16.5529L29.8661 11.1944C30.0252 9.77984 30.1047 9.07255 29.7753 8.50252C29.4458 7.93248 28.7932 7.64833 27.4881 7.08002L22.5178 4.9157C22.3129 4.82649 22.2105 4.78188 22.1138 4.72628C22.0172 4.67068 21.9271 4.60455 21.747 4.47229L21.747 4.47226L17.3697 1.25748C16.2282 0.419159 15.6575 -2.09984e-08 15.002 0ZM15.005 23.3566C18.5285 23.3566 21.3849 20.5106 21.3849 16.9998C21.3849 13.489 18.5285 10.6429 15.005 10.6429C11.4815 10.6429 8.62506 13.489 8.62506 16.9998C8.62506 20.5106 11.4815 23.3566 15.005 23.3566Z" fill="currentColor"/>
		</symbol>
		<symbol id="document" width="100%" height="100%" viewBox="0 0 28 34">
			<path fill-rule="evenodd" clip-rule="evenodd" d="M0.585786 0.585786C0 1.17157 0 2.11438 0 4V30C0 31.8856 0 32.8284 0.585786 33.4142C1.17157 34 2.11438 34 4 34H24C25.8856 34 26.8284 34 27.4142 33.4142C28 32.8284 28 31.8856 28 30V4C28 2.11438 28 1.17157 27.4142 0.585786C26.8284 0 25.8856 0 24 0H4C2.11438 0 1.17157 0 0.585786 0.585786ZM8 8.50001C7.17157 8.50001 6.5 9.17158 6.5 10C6.5 10.8284 7.17157 11.5 8 11.5H20C20.8284 11.5 21.5 10.8284 21.5 10C21.5 9.17158 20.8284 8.50001 20 8.50001H8ZM8 16.5C7.17157 16.5 6.5 17.1716 6.5 18C6.5 18.8284 7.17157 19.5 8 19.5H20C20.8284 19.5 21.5 18.8284 21.5 18C21.5 17.1716 20.8284 16.5 20 16.5H8ZM8 24.5C7.17157 24.5 6.5 25.1716 6.5 26C6.5 26.8284 7.17157 27.5 8 27.5H16C16.8284 27.5 17.5 26.8284 17.5 26C17.5 25.1716 16.8284 24.5 16 24.5H8Z" fill="currentColor"/>
		</symbol>
		<symbol id="bag-1" width="100%" height="100%" viewBox="0 0 36 36">
			<path d="M12 12L12 10.5C12 7.18629 14.6863 4.5 18 4.5V4.5C21.3137 4.5 24 7.18629 24 10.5L24 12" fill="rgba(0, 0, 0, 0)" stroke="currentColor" stroke-width="2" stroke-linecap="round"/>
			<path fill-rule="evenodd" clip-rule="evenodd" d="M5.08579 11.0858C4.5 11.6716 4.5 12.6144 4.5 14.5V25C4.5 28.7712 4.5 30.6569 5.67157 31.8284C6.84315 33 8.72876 33 12.5 33H23.5C27.2712 33 29.1569 33 30.3284 31.8284C31.5 30.6569 31.5 28.7712 31.5 25V14.5C31.5 12.6144 31.5 11.6716 30.9142 11.0858C30.3284 10.5 29.3856 10.5 27.5 10.5H8.5C6.61438 10.5 5.67157 10.5 5.08579 11.0858ZM14.5 18C14.5 17.4477 14.0523 17 13.5 17C12.9477 17 12.5 17.4477 12.5 18V21C12.5 21.5523 12.9477 22 13.5 22C14.0523 22 14.5 21.5523 14.5 21V18ZM23.5 18C23.5 17.4477 23.0523 17 22.5 17C21.9477 17 21.5 17.4477 21.5 18V21C21.5 21.5523 21.9477 22 22.5 22C23.0523 22 23.5 21.5523 23.5 21V18Z" fill="currentColor"/>
		</symbol>
		<symbol id="geolocation" width="100%" height="100%" viewBox="0 0 16 18">
			<path d="M12.9497 12.9497C12.1703 13.7292 10.582 15.3174 9.41397 16.4855C8.63292 17.2666 7.36745 17.2669 6.5864 16.4859C5.4391 15.3386 3.88037 13.7799 3.05025 12.9497C0.316582 10.2161 0.316582 5.78392 3.05025 3.05025C5.78392 0.316583 10.2161 0.316583 12.9497 3.05025C15.6834 5.78392 15.6834 10.2161 12.9497 12.9497Z" stroke="currentColor" stroke-width="1.6" stroke-linecap="round" stroke-linejoin="round" fill="rgba(0, 0, 0, 0)"/>
			<path d="M10.625 8C10.625 9.44975 9.44975 10.625 8 10.625C6.55025 10.625 5.375 9.44975 5.375 8C5.375 6.55025 6.55025 5.375 8 5.375C9.44975 5.375 10.625 6.55025 10.625 8Z" stroke="#000" stroke-width="1.6" stroke-linecap="round" stroke-linejoin="round" fill="rgba(0, 0, 0, 0)"/>
		</symbol>
		<symbol id="car" width="100%" height="100%" viewBox="0 0 18 15">
			<path d="M9.88889 11.4545H10.6889H9.88889ZM9.88889 4.34342H9.08889V4.34342L9.88889 4.34342ZM13.7048 3.71488L14.2705 3.1492L14.2705 3.1492L13.7048 3.71488ZM16.7396 6.74974L17.3053 6.18406V6.18406L16.7396 6.74974ZM1.88889 2.47676H9V0.876758H1.88889V2.47676ZM9.08889 2.56565V11.4545H10.6889V2.56565H9.08889ZM1.8 11.4545V2.56565H0.2V11.4545H1.8ZM2.77778 11.5434H1.88889V13.1434H2.77778V11.5434ZM9 11.5434H6.33333V13.1434H9V11.5434ZM0.2 11.4545C0.2 12.3873 0.956141 13.1434 1.88889 13.1434V11.5434C1.8398 11.5434 1.8 11.5036 1.8 11.4545H0.2ZM9.08889 11.4545C9.08889 11.5036 9.04909 11.5434 9 11.5434V13.1434C9.93275 13.1434 10.6889 12.3873 10.6889 11.4545H9.08889ZM9 2.47676C9.04909 2.47676 9.08889 2.51656 9.08889 2.56565H10.6889C10.6889 1.6329 9.93275 0.876758 9 0.876758V2.47676ZM1.88889 0.876758C0.956142 0.876758 0.2 1.6329 0.2 2.56565H1.8C1.8 2.51655 1.8398 2.47676 1.88889 2.47676V0.876758ZM10.6889 11.4545L10.6889 4.34342L9.08889 4.34342L9.08889 11.4545H10.6889ZM10.7778 4.25454H13.0763V2.65454H10.7778V4.25454ZM16.2 7.37828V11.4545H17.8V7.37828H16.2ZM13.1391 4.28057L16.174 7.31543L17.3053 6.18406L14.2705 3.1492L13.1391 4.28057ZM11.6667 11.5434H10.7778V13.1434H11.6667V11.5434ZM16.1111 11.5434H15.2222V13.1434H16.1111V11.5434ZM17.8 7.37828C17.8 6.93036 17.6221 6.50078 17.3053 6.18406L16.174 7.31543C16.1906 7.3321 16.2 7.35471 16.2 7.37828H17.8ZM13.0763 4.25454C13.0998 4.25454 13.1224 4.2639 13.1391 4.28057L14.2705 3.1492C13.9538 2.83247 13.5242 2.65454 13.0763 2.65454V4.25454ZM9.08889 11.4545C9.08889 12.3873 9.84503 13.1434 10.7778 13.1434V11.5434C10.7287 11.5434 10.6889 11.5036 10.6889 11.4545H9.08889ZM16.2 11.4545C16.2 11.5036 16.1602 11.5434 16.1111 11.5434V13.1434C17.0439 13.1434 17.8 12.3873 17.8 11.4545H16.2ZM10.6889 4.34342C10.6889 4.29433 10.7287 4.25454 10.7778 4.25454V2.65454C9.84503 2.65454 9.08889 3.41068 9.08889 4.34342H10.6889ZM5.53333 12.3434C5.53333 12.8834 5.09557 13.3212 4.55555 13.3212V14.9212C5.97922 14.9212 7.13333 13.7671 7.13333 12.3434H5.53333ZM4.55555 13.3212C4.01554 13.3212 3.57778 12.8834 3.57778 12.3434H1.97778C1.97778 13.7671 3.13189 14.9212 4.55555 14.9212V13.3212ZM3.57778 12.3434C3.57778 11.8034 4.01554 11.3656 4.55555 11.3656V9.76565C3.13189 9.76565 1.97778 10.9198 1.97778 12.3434H3.57778ZM4.55555 11.3656C5.09557 11.3656 5.53333 11.8034 5.53333 12.3434H7.13333C7.13333 10.9198 5.97922 9.76565 4.55555 9.76565V11.3656ZM14.4222 12.3434C14.4222 12.8834 13.9845 13.3212 13.4444 13.3212V14.9212C14.8681 14.9212 16.0222 13.7671 16.0222 12.3434H14.4222ZM13.4444 13.3212C12.9044 13.3212 12.4667 12.8834 12.4667 12.3434H10.8667C10.8667 13.7671 12.0208 14.9212 13.4444 14.9212V13.3212ZM12.4667 12.3434C12.4667 11.8034 12.9044 11.3656 13.4444 11.3656V9.76565C12.0208 9.76565 10.8667 10.9198 10.8667 12.3434H12.4667ZM13.4444 11.3656C13.9845 11.3656 14.4222 11.8034 14.4222 12.3434H16.0222C16.0222 10.9198 14.8681 9.76565 13.4444 9.76565V11.3656Z" fill="currentColor"/>
		</symbol>
		<symbol id="town" width="100%" height="100%" viewBox="0 0 24 24">
			<path fill-rule="evenodd" clip-rule="evenodd" d="M5.27446 10.1262C5 10.7229 5 11.4018 5 12.7595V16.9999C5 18.8856 5 19.8284 5.58579 20.4142C6.11733 20.9457 6.94285 20.9949 8.5 20.9995V16C8.5 14.8954 9.39543 14 10.5 14H13.5C14.6046 14 15.5 14.8954 15.5 16V20.9995C17.0572 20.9949 17.8827 20.9457 18.4142 20.4142C19 19.8284 19 18.8856 19 16.9999V12.7595C19 11.4018 19 10.7229 18.7255 10.1262C18.4511 9.52943 17.9356 9.08763 16.9047 8.20401L15.9047 7.34687C14.0414 5.74974 13.1098 4.95117 12 4.95117C10.8902 4.95117 9.95857 5.74974 8.09525 7.34687L7.09525 8.20401C6.06437 9.08763 5.54892 9.52943 5.27446 10.1262ZM13.5 20.9999V16H10.5V20.9999H13.5Z" fill="currentColor"/>
		</symbol>
		<symbol id="timer" width="100%" height="100%" viewBox="0 0 24 24">
			<path fill-rule="evenodd" clip-rule="evenodd" d="M21 14C21 18.9706 16.9706 23 12 23C7.02944 23 3 18.9706 3 14C3 9.02944 7.02944 5 12 5C16.9706 5 21 9.02944 21 14ZM12 19C14.7614 19 17 16.7614 17 14C17 11.2386 14.7614 9 12 9C9.23858 9 7 11.2386 7 14C7 16.7614 9.23858 19 12 19ZM12 21C15.866 21 19 17.866 19 14C19 10.134 15.866 7 12 7C8.13401 7 5 10.134 5 14C5 17.866 8.13401 21 12 21ZM13 11C13 10.4477 12.5523 10 12 10C11.4477 10 11 10.4477 11 11V14C11 14.5523 11.4477 15 12 15C12.5523 15 13 14.5523 13 14V11Z" fill="currentColor"/>
			<path d="M17.5 7.5L19 6" stroke="currentColor" stroke-width="2" stroke-linecap="round"/>
			<path d="M10.0681 2.37059C10.1821 2.26427 10.4332 2.17033 10.7825 2.10332C11.1318 2.03632 11.5597 2 12 2C12.4403 2 12.8682 2.03632 13.2175 2.10332C13.5668 2.17033 13.8179 2.26427 13.9319 2.37059" stroke="currentColor" stroke-width="2" stroke-linecap="round"/>
		</symbol>
		<symbol id="sms" width="100%" height="100%" viewBox="0 0 24 24">
			<path fill-rule="evenodd" clip-rule="evenodd" d="M20 11C20 8.19108 20 6.78661 19.3259 5.77772C19.034 5.34096 18.659 4.96596 18.2223 4.67412C17.2134 4 15.8089 4 13 4H11C8.19108 4 6.78661 4 5.77772 4.67412C5.34096 4.96596 4.96596 5.34096 4.67412 5.77772C4 6.78661 4 8.19108 4 11C4 13.8089 4 15.2134 4.67412 16.2223C4.96596 16.659 5.34096 17.034 5.77772 17.3259C6.65907 17.9148 7.8423 17.9892 10 17.9986V18L11.1056 20.2111C11.4741 20.9482 12.5259 20.9482 12.8944 20.2111L14 18V17.9986C16.1577 17.9892 17.3409 17.9148 18.2223 17.3259C18.659 17.034 19.034 16.659 19.3259 16.2223C20 15.2134 20 13.8089 20 11ZM9 8C8.44772 8 8 8.44772 8 9C8 9.55228 8.44772 10 9 10H15C15.5523 10 16 9.55228 16 9C16 8.44772 15.5523 8 15 8H9ZM9 12C8.44772 12 8 12.4477 8 13C8 13.5523 8.44772 14 9 14H12C12.5523 14 13 13.5523 13 13C13 12.4477 12.5523 12 12 12H9Z" fill="currentColor"/>
		</symbol>
	</defs>
</svg>
